<svg version="1.1" id="Layer_1" xmlns="http://www.w3.org/2000/svg" xmlns:xlink="http://www.w3.org/1999/xlink" x="0px" y="0px"
	 width="100%" viewBox="0 0 1800 400" enable-background="new 0 0 1800 400" xml:space="preserve">
<path fill="#0F0F0F" opacity="1.000000" stroke="none" 
	d="
M1673.000000,401.000000 
	C1115.396484,401.000000 558.293091,401.000000 1.094797,401.000000 
	C1.094797,267.745056 1.094797,134.490005 1.094797,1.117483 
	C601.000000,1.117483 1201.000000,1.117483 1800.992310,1.117483 
	C1800.992310,134.373871 1800.992310,267.686951 1800.988525,401.000000 
	C1758.489746,401.000000 1715.994873,401.000000 1673.000000,401.000000 
M353.275269,247.188477 
	C351.382721,247.705536 349.391113,248.792953 347.641144,248.489029 
	C346.817627,248.346024 346.068176,245.552505 345.967072,243.917862 
	C345.725677,240.014343 345.889191,236.085785 345.889191,232.148621 
	C344.193146,232.148621 343.064758,232.148621 341.618896,232.148621 
	C341.618896,236.450012 341.615753,240.576279 341.619934,244.702545 
	C341.623230,247.981674 342.056763,251.040512 345.599060,252.529175 
	C349.359222,254.109406 351.878448,252.227768 354.186462,250.376999 
	C354.899567,255.319641 358.479553,252.064835 360.952545,253.246353 
	C360.952545,251.738693 361.207520,250.061859 360.913910,249.959595 
	C357.108063,248.633682 358.650970,245.355225 358.375275,242.927063 
	C358.022491,239.819824 358.278198,236.645004 358.229767,233.499969 
	C358.223022,233.062897 357.976532,232.629517 357.839569,232.189728 
	C356.625214,232.189728 355.528687,232.189728 353.868469,232.189728 
	C353.868469,237.160629 353.868469,241.939835 353.275269,247.188477 
M1478.275391,247.188370 
	C1476.382812,247.705475 1474.391357,248.792831 1472.641235,248.489059 
	C1471.817871,248.346130 1471.068481,245.552521 1470.967285,243.917892 
	C1470.725830,240.014343 1470.889282,236.085754 1470.889282,232.148651 
	C1469.191406,232.148651 1468.064087,232.148651 1466.618896,232.148651 
	C1466.618896,236.450027 1466.615723,240.576279 1466.619873,244.702545 
	C1466.623169,247.981720 1467.056763,251.040482 1470.599121,252.529190 
	C1474.359253,254.109390 1476.878418,252.227844 1479.186401,250.376999 
	C1479.899536,255.319550 1483.479492,252.064926 1485.952515,253.246368 
	C1485.952515,251.724670 1486.205322,250.060043 1485.914185,249.958771 
	C1482.107788,248.634567 1483.650879,245.355408 1483.375244,242.927170 
	C1483.022583,239.819901 1483.278198,236.645111 1483.229614,233.500107 
	C1483.222900,233.062988 1482.976685,232.629578 1482.839722,232.189713 
	C1481.625244,232.189713 1480.528687,232.189713 1478.868530,232.189713 
	C1478.868530,237.160568 1478.868530,241.939743 1478.275391,247.188370 
M1146.702515,238.846481 
	C1149.706909,234.673462 1150.789062,234.658417 1153.891357,238.152481 
	C1154.675781,239.035919 1156.331787,239.145401 1157.587158,239.610535 
	C1157.995605,239.100555 1158.404053,238.590576 1158.812500,238.080612 
	C1157.356689,236.169846 1156.236328,233.250549 1154.353149,232.623886 
	C1152.356567,231.959534 1149.651733,233.574249 1147.219971,233.971893 
	C1146.531250,234.084518 1145.715576,233.421387 1144.818726,232.290298 
	C1142.577393,232.186951 1140.336060,232.083603 1138.094727,231.980255 
	C1137.694824,232.228668 1137.294800,232.477081 1136.894897,232.725494 
	C1143.580566,237.040451 1141.604614,243.033829 1141.613525,247.339554 
	C1139.380859,249.363571 1138.035156,250.583466 1136.689575,251.803360 
	C1136.986328,252.122101 1137.282959,252.440842 1137.579712,252.759583 
	C1142.001343,252.759583 1146.422852,252.759583 1150.844360,252.759583 
	C1151.065552,252.287918 1151.286743,251.816254 1151.507935,251.344589 
	C1149.826294,250.346420 1148.144531,249.348236 1146.149658,248.164108 
	C1146.149658,245.637405 1146.149658,242.505966 1146.702515,238.846481 
M1008.237976,233.951019 
	C1004.673035,233.145950 1001.108154,232.340866 997.260742,231.472015 
	C997.260742,239.252563 997.260742,246.012039 997.260742,253.047028 
	C998.713074,252.930847 999.930237,252.833466 1001.038086,252.744843 
	C1001.338928,246.636658 1001.621765,240.895096 1001.904602,235.153534 
	C1002.739197,235.162933 1003.573853,235.172348 1004.408508,235.181747 
	C1004.408508,241.098267 1004.408508,247.014801 1004.408508,252.931320 
	C1005.144592,253.139236 1005.880676,253.347153 1006.616699,253.555054 
	C1007.272583,252.391052 1008.405151,251.264694 1008.500549,250.056458 
	C1008.879456,245.256027 1008.934631,240.430023 1009.877869,235.307281 
	C1010.598022,236.474884 1011.875854,237.613007 1011.939453,238.815308 
	C1012.183533,243.432404 1012.038269,248.070068 1012.038269,252.977676 
	C1013.620483,252.881744 1014.826355,252.808609 1016.165527,252.727402 
	C1016.165527,247.093826 1016.313416,241.775406 1016.066956,236.475296 
	C1016.001099,235.059113 1014.887878,232.683212 1013.976074,232.541153 
	C1012.446594,232.302902 1010.692871,233.503677 1008.237976,233.951019 
M1173.878174,235.307205 
	C1174.598145,236.474915 1175.875488,237.613159 1175.939087,238.815552 
	C1176.183228,243.432587 1176.038086,248.070190 1176.038086,252.977859 
	C1177.618408,252.881958 1178.825684,252.808701 1180.165527,252.727386 
	C1180.165527,247.093796 1180.313477,241.775406 1180.067017,236.475357 
	C1180.000977,235.059174 1178.888062,232.683289 1177.976196,232.541214 
	C1176.446655,232.302887 1174.692993,233.503616 1172.238037,233.950989 
	C1168.673096,233.145920 1165.108154,232.340866 1161.260742,231.472015 
	C1161.260742,239.252640 1161.260742,246.012131 1161.260742,253.047150 
	C1162.713135,252.930893 1163.930420,252.833450 1165.325439,252.721771 
	C1165.325439,249.394043 1165.202026,246.396927 1165.361206,243.414917 
	C1165.509033,240.647278 1165.958618,237.895752 1166.275269,235.137131 
	C1166.986450,235.156158 1167.697510,235.175186 1168.408691,235.194214 
	C1168.408691,241.107010 1168.408691,247.019806 1168.408691,252.932602 
	C1169.144775,253.140106 1169.880981,253.347595 1170.617065,253.555099 
	C1171.272949,252.391006 1172.405151,251.264511 1172.500610,250.056183 
	C1172.879639,245.255737 1172.934814,240.429703 1173.878174,235.307205 
M965.783447,159.879990 
	C965.783447,155.301697 965.783447,150.723404 965.783447,146.196671 
	C963.266968,146.196671 961.491028,146.196671 959.542236,146.196671 
	C959.542236,160.849701 959.542236,175.267212 959.542236,189.719696 
	C961.685852,189.719696 963.579285,189.719696 966.003906,189.719696 
	C966.003906,183.270737 965.831665,177.128860 966.057556,171.001663 
	C966.243530,165.955124 968.670471,163.785599 973.110046,163.973068 
	C978.022156,164.180496 978.432190,167.669586 978.460449,171.358490 
	C978.507385,177.489639 978.473267,183.621399 978.473267,189.688263 
	C980.849854,189.688263 982.743103,189.688263 984.803223,189.688263 
	C984.803223,182.531052 984.961365,175.716324 984.742676,168.913696 
	C984.615479,164.955612 983.344604,161.147278 979.265747,159.552612 
	C975.091980,157.920776 970.829041,157.607147 967.176819,161.141083 
	C967.007446,161.304977 966.273560,160.885376 965.783447,159.879990 
M862.966797,177.018372 
	C868.573059,177.018372 874.179382,177.018372 879.915710,177.018372 
	C879.915710,174.192703 880.187378,171.851089 879.860718,169.596146 
	C879.116455,164.458282 876.614807,160.499680 871.289795,159.065933 
	C863.004089,156.835068 856.167725,160.394363 853.837891,168.026657 
	C850.825500,177.894760 854.413147,187.292404 862.764832,189.388107 
	C867.711853,190.629486 873.072388,190.223267 878.699524,190.587173 
	C878.231506,187.737640 877.973633,186.168030 877.719727,184.622177 
	C864.593506,185.791977 860.683594,184.142899 859.574463,177.018463 
	C860.422302,177.018463 861.252563,177.018463 862.966797,177.018372 
M823.278748,190.242569 
	C828.547729,189.863876 833.876892,189.847107 839.065308,188.984024 
	C842.757568,188.369812 844.363647,185.169342 844.560608,181.542435 
	C844.762451,177.825256 843.156860,175.024292 839.555725,173.796341 
	C836.267151,172.674973 832.802063,172.049179 829.561707,170.818192 
	C828.094116,170.260681 826.982239,168.766785 825.709045,167.697662 
	C827.020569,166.653778 828.233521,164.896271 829.661926,164.699112 
	C834.038147,164.095108 838.497070,164.090042 843.140442,163.840408 
	C843.309570,162.212952 843.470886,160.660690 843.743774,158.034531 
	C837.194946,158.655243 831.251282,158.931274 825.414368,159.870361 
	C821.359558,160.522751 819.248413,163.549606 819.040527,167.703568 
	C818.828674,171.937210 821.362000,174.070877 825.026062,175.181610 
	C828.359497,176.192093 831.794312,176.899628 835.060486,178.082962 
	C836.224548,178.504684 837.961548,180.169449 837.789001,180.847275 
	C837.464355,182.122391 836.132141,183.583649 834.871887,184.071945 
	C833.078613,184.766754 830.968201,184.873245 829.000732,184.836227 
	C825.761108,184.775238 822.527344,184.397995 819.281799,184.153381 
	C818.894714,187.262299 817.492554,190.526443 823.278748,190.242569 
M913.512085,164.460464 
	C913.882446,162.813156 914.252747,161.165863 914.774353,158.845795 
	C909.483276,158.845795 904.960449,158.845795 900.220947,158.845795 
	C900.220947,155.328766 900.220947,152.356491 900.220947,149.247375 
	C898.082703,149.247375 896.196533,149.247375 893.909302,149.247375 
	C893.909302,152.584717 893.909302,155.672058 893.909302,159.194901 
	C891.096375,159.194901 888.691040,159.194901 886.119202,159.194901 
	C886.219788,161.128098 886.295837,162.589493 886.384033,164.284470 
	C888.969482,164.470673 891.368225,164.643433 893.986877,164.832031 
	C893.986877,168.271271 893.964966,171.411728 893.990662,174.551788 
	C894.101135,188.047043 898.125244,191.606216 911.718506,190.241974 
	C912.844849,190.128952 913.965393,189.958282 915.430664,189.770569 
	C915.206299,187.821503 915.008545,186.103455 914.819824,184.463776 
	C911.932434,184.607468 909.444275,184.900696 906.969116,184.815231 
	C903.149536,184.683304 900.595398,182.748093 900.418274,178.760559 
	C900.216431,174.214737 900.371521,169.653076 900.371521,164.559692 
	C904.761597,164.559692 908.715332,164.559692 913.512085,164.460464 
M948.531982,190.080322 
	C948.977478,188.347443 949.422913,186.614548 949.932922,184.630493 
	C935.916443,185.252625 932.138916,183.973694 930.341248,178.403641 
	C928.754822,173.488159 930.163635,168.042160 933.629333,165.693222 
	C937.599060,163.002594 941.523254,163.687180 947.317017,168.234741 
	C948.644043,167.199875 950.030884,166.118393 951.911499,164.651794 
	C950.166809,163.021072 948.935730,161.440140 947.337158,160.456238 
	C942.370728,157.399368 933.339905,158.045151 928.849670,161.556412 
	C924.107239,165.264938 922.036499,173.307404 924.240784,180.375137 
	C926.201660,186.662216 930.797302,189.832352 937.229553,190.239731 
	C940.702576,190.459702 944.203796,190.234741 948.531982,190.080322 
M851.129272,238.701660 
	C851.129272,236.579376 851.129272,234.457077 851.129272,230.819702 
	C847.336365,235.499191 844.042969,231.527954 840.726440,232.097260 
	C838.739685,232.438324 836.498352,233.351700 835.117981,234.746628 
	C832.150574,237.745239 832.024597,246.291428 834.624268,249.825485 
	C837.650818,253.939896 841.655334,253.491089 845.825500,251.911667 
	C845.998962,251.846008 846.340515,252.224335 846.821350,252.537567 
	C846.058472,260.967621 838.772339,256.831207 834.230530,258.757599 
	C834.570496,259.859619 834.568970,261.385742 835.239014,261.785156 
	C840.811768,265.106628 850.417297,260.161804 850.947144,253.599533 
	C851.320801,248.972595 851.090149,244.296844 851.129272,238.701660 
M310.067291,237.253403 
	C308.886658,233.167740 307.706024,229.082077 306.555817,225.101746 
	C304.434906,225.101746 302.787537,225.101746 300.830963,225.101746 
	C298.201935,234.296677 295.584534,243.451004 292.934631,252.718979 
	C299.387573,254.192749 296.927521,248.110184 299.326263,246.280701 
	C302.336975,246.280701 305.449371,246.280701 308.329681,246.280701 
	C310.201416,248.714630 308.359344,254.232681 314.493469,252.606979 
	C313.027985,247.578598 311.638550,242.811096 310.067291,237.253403 
M905.608154,258.133575 
	C904.491821,259.042084 903.375427,259.950592 902.259094,260.859070 
	C910.468933,262.022003 913.671997,260.179047 916.072021,253.580566 
	C918.600342,246.629303 920.694153,239.519989 922.996033,232.423538 
	C919.982483,231.426285 918.463501,231.932709 917.766663,235.112488 
	C916.746033,239.770508 915.143738,244.301102 913.479492,249.934845 
	C911.323792,244.218460 909.714600,239.358612 907.608521,234.724609 
	C906.969788,233.319397 904.957825,232.538361 903.574890,231.471436 
	C903.216553,231.921555 902.858215,232.371689 902.499939,232.821808 
	C905.442505,240.019485 908.385010,247.217163 911.616089,255.120575 
	C910.237793,255.882202 908.291870,256.957520 905.608154,258.133575 
M485.568390,233.682053 
	C484.171326,233.024994 482.774261,232.367935 481.377228,231.710876 
	C481.184357,232.095749 480.991516,232.480621 480.798645,232.865494 
	C483.651642,239.952652 486.504639,247.039795 489.981903,255.677750 
	C490.156006,259.540253 480.878510,255.660110 480.870300,262.088013 
	C486.951172,262.284729 491.604370,260.610535 493.628876,255.257278 
	C496.462891,247.763489 498.756866,240.065475 501.341583,232.274887 
	C494.876465,230.994186 496.212799,236.120331 495.097534,238.741959 
	C493.721436,241.976837 493.002808,245.491409 491.689514,249.936188 
	C489.475769,244.012558 487.682495,239.214066 485.568390,233.682053 
M755.828003,249.192764 
	C751.547974,248.850769 746.315918,250.930756 743.893433,244.178467 
	C748.749817,244.178467 753.153992,244.178467 757.497253,244.178467 
	C758.233337,236.950699 756.079102,233.093903 751.092896,232.115021 
	C746.068054,231.128571 741.252625,233.745407 740.230347,238.472351 
	C739.343140,242.574738 738.713379,247.601227 742.662109,249.915070 
	C746.215942,251.997482 750.989563,252.028564 755.259949,252.762222 
	C755.459290,252.796478 755.997864,250.856644 755.828003,249.192764 
M1187.185913,235.264404 
	C1190.275146,237.307648 1195.840576,233.436829 1197.555176,239.693954 
	C1192.564941,240.496765 1186.293945,238.696960 1184.736694,245.482925 
	C1184.301392,247.379791 1185.500000,250.696609 1187.055542,251.795319 
	C1190.683105,254.357544 1194.559326,253.295166 1196.416626,251.456985 
	C1199.830688,252.282227 1202.223511,252.860611 1205.151733,253.568420 
	C1205.036987,251.699524 1205.184814,249.972046 1204.887817,249.891861 
	C1200.549805,248.720490 1201.816162,245.286911 1201.759277,242.446030 
	C1201.596069,234.272522 1196.662964,230.248260 1188.739258,232.068115 
	C1188.023560,232.232468 1187.581543,233.588089 1187.185913,235.264404 
M986.253906,244.118820 
	C988.058350,244.118820 989.862854,244.118820 991.633057,244.118820 
	C992.529541,236.583023 990.155518,232.655014 984.526306,232.032196 
	C979.321716,231.456345 975.348999,234.239243 974.205811,239.261810 
	C972.881836,245.078400 975.089478,250.588074 979.986633,252.018692 
	C983.351257,253.001602 987.039917,252.875153 990.721191,253.258881 
	C990.410278,249.175613 990.409973,249.164093 987.204529,249.249817 
	C983.476562,249.349503 979.770508,249.430954 978.224609,244.118805 
	C980.787170,244.118805 983.048096,244.118805 986.253906,244.118820 
M660.235962,253.009705 
	C661.226562,252.097229 662.217163,251.184738 663.207764,250.272263 
	C657.897766,248.930328 652.638428,250.801605 650.157776,244.167480 
	C655.121582,244.167480 659.396912,244.167480 663.630005,244.167480 
	C664.550049,236.358154 661.977783,232.379471 656.014771,232.002945 
	C649.721741,231.605576 645.827942,235.778702 645.977600,242.760117 
	C646.132996,250.016098 649.934692,252.937408 660.235962,253.009705 
M1358.719116,231.996628 
	C1355.948975,234.688416 1352.950317,231.932373 1349.943359,232.043137 
	C1349.943359,239.132538 1349.943359,245.906372 1349.943359,252.767517 
	C1351.302612,252.767517 1352.527954,252.767517 1354.079834,252.767517 
	C1354.079834,248.361404 1353.653320,244.153351 1354.291138,240.113358 
	C1354.543945,238.511642 1357.159912,237.283005 1358.699951,235.884491 
	C1359.934814,237.300522 1362.044922,238.608917 1362.234863,240.153397 
	C1362.736084,244.230759 1362.404419,248.410522 1362.404419,252.791656 
	C1364.000610,252.791656 1365.222046,252.791656 1366.761597,252.791656 
	C1366.761597,248.084518 1366.948608,243.607925 1366.708496,239.154358 
	C1366.473877,234.806183 1364.357300,231.934662 1358.719116,231.996628 
M810.801514,245.370453 
	C810.801514,247.824417 810.801514,250.278381 810.801514,252.714203 
	C812.397400,252.714203 813.605896,252.714203 815.092346,252.714203 
	C815.092346,248.256058 814.663330,244.048676 815.307434,240.012543 
	C815.558472,238.439240 818.226013,237.251587 819.792847,235.888290 
	C820.997620,237.331100 823.052551,238.671143 823.241821,240.236725 
	C823.734131,244.308838 823.407288,248.479996 823.407288,252.763535 
	C825.029419,252.763535 826.251709,252.763535 827.759583,252.763535 
	C827.759583,248.033463 827.934326,243.561798 827.706421,239.110733 
	C827.510925,235.290863 825.821533,232.164276 821.502930,232.071609 
	C818.013672,231.996719 814.509827,232.601486 810.801514,232.923035 
	C810.801514,236.451324 810.801514,240.433838 810.801514,245.370453 
M1443.493164,237.749725 
	C1443.493164,242.708755 1443.493164,247.667801 1443.493164,252.732742 
	C1445.070190,252.732742 1446.286133,252.732742 1447.963745,252.732742 
	C1447.963745,248.487030 1447.958008,244.527390 1447.965576,240.567764 
	C1447.971313,237.580566 1449.366699,235.884094 1452.461548,235.863953 
	C1455.702148,235.842865 1456.148193,238.020248 1456.135376,240.576691 
	C1456.114868,244.660080 1456.129883,248.743652 1456.129883,253.000717 
	C1457.858154,252.923462 1458.977783,252.873413 1460.390137,252.810272 
	C1460.390137,248.493118 1460.492920,244.356750 1460.368164,240.227264 
	C1460.128052,232.277710 1454.978638,229.706650 1448.680420,233.615372 
	C1446.864990,232.884735 1445.447021,232.314056 1443.493286,231.527740 
	C1443.493286,233.871658 1443.493286,235.349884 1443.493164,237.749725 
M1289.387207,235.923569 
	C1290.302734,237.618881 1291.826904,239.251434 1292.009644,241.022308 
	C1292.411011,244.914383 1292.134033,248.876419 1292.134033,252.849884 
	C1293.805176,252.849884 1294.937500,252.849884 1296.390381,252.849884 
	C1296.390381,248.550125 1296.826538,244.350647 1296.235474,240.301071 
	C1295.848755,237.651779 1294.598755,234.177567 1292.594238,232.975464 
	C1290.475220,231.704559 1287.002930,232.690338 1284.121704,232.690338 
	C1284.188843,232.956894 1284.255981,233.223450 1284.323120,233.490021 
	C1282.905029,232.903534 1281.487061,232.317062 1279.677002,231.568466 
	C1279.677002,239.137390 1279.677002,245.900543 1279.677002,252.951492 
	C1281.096558,252.884354 1282.318237,252.826569 1283.968140,252.748535 
	C1283.968140,248.443939 1283.960571,244.480911 1283.970459,240.517914 
	C1283.977905,237.505402 1285.439087,235.888809 1289.387207,235.923569 
M1072.805176,245.535629 
	C1072.842163,244.044327 1072.902710,242.553162 1072.911499,241.061691 
	C1072.929688,238.004852 1073.991821,235.858093 1077.462524,235.865570 
	C1081.099731,235.873413 1081.137451,238.469711 1081.135254,241.074875 
	C1081.131836,244.992325 1081.134277,248.909775 1081.134277,253.000519 
	C1082.857910,252.923538 1083.977661,252.873535 1085.390137,252.810455 
	C1085.390137,248.493652 1085.492920,244.357529 1085.368286,240.228271 
	C1085.128418,232.278610 1079.976196,229.705688 1073.680542,233.617157 
	C1071.876099,232.888962 1070.453857,232.315002 1068.682617,231.600250 
	C1068.682617,239.158218 1068.682617,245.923752 1068.682617,252.970413 
	C1070.110107,252.893066 1071.332764,252.826813 1072.805298,252.747025 
	C1072.805298,250.409546 1072.805298,248.436264 1072.805176,245.535629 
M1104.905029,228.015213 
	C1110.029541,227.824539 1110.029541,227.824539 1110.136475,224.538010 
	C1100.419922,222.854568 1097.802246,225.127182 1096.261719,236.735245 
	C1094.223755,236.900879 1092.148682,237.069534 1090.095337,237.236420 
	C1089.441284,243.288223 1094.801025,239.225586 1096.659424,242.093872 
	C1096.659424,245.170319 1096.659424,248.941238 1096.659424,252.979599 
	C1098.241211,252.906906 1099.457153,252.851028 1101.014404,252.779465 
	C1101.014404,248.589157 1101.014404,244.814926 1101.014404,241.089157 
	C1108.824463,240.400558 1108.824463,240.400558 1108.706177,236.795105 
	C1106.143433,236.795105 1103.562622,236.795105 1099.301758,236.795105 
	C1101.274658,233.236923 1102.677612,230.706802 1104.905029,228.015213 
M538.214539,234.756943 
	C538.057434,228.113434 542.500366,227.406097 548.758179,227.984360 
	C547.673584,226.117828 547.305420,224.500092 546.458191,224.189606 
	C541.753113,222.465347 535.960999,225.600403 534.646912,230.492508 
	C534.102600,232.518829 533.997986,234.663284 533.690552,236.773849 
	C531.603760,236.937897 529.681763,237.088989 527.725037,237.242813 
	C527.027161,243.180695 532.255798,239.333176 534.086853,241.756973 
	C534.086853,245.135849 534.086853,248.929306 534.086853,252.998032 
	C535.625977,252.896683 536.837097,252.816940 538.410156,252.713364 
	C538.410156,248.650406 538.410156,244.897614 538.410156,241.212494 
	C546.374207,240.206573 546.374207,240.206573 546.402710,237.654572 
	C543.636475,236.999420 540.937561,236.360214 538.214539,234.756943 
M1325.937500,245.570099 
	C1327.970459,251.670868 1332.145874,254.257080 1337.459595,252.706757 
	C1342.311523,251.291138 1344.888916,245.743423 1343.558472,239.579041 
	C1342.365356,234.050110 1338.432739,231.224030 1333.095215,232.059998 
	C1327.765991,232.894669 1325.579224,236.743744 1325.937500,245.570099 
M1273.311157,240.139893 
	C1271.821655,233.812393 1267.979614,230.985397 1262.423828,232.129059 
	C1257.277710,233.188400 1254.560791,238.176712 1255.574341,244.704575 
	C1256.498047,250.653259 1260.296387,253.698334 1265.865601,252.954956 
	C1271.148315,252.249802 1273.433472,248.615341 1273.311157,240.139893 
M552.459167,240.910049 
	C552.465576,248.567337 554.777405,252.236694 560.047546,252.954391 
	C565.460205,253.691467 569.312988,250.769028 570.248718,245.216400 
	C571.414734,238.297089 568.808228,233.225235 563.524048,232.131378 
	C557.989746,230.985733 554.157288,233.791489 552.459167,240.910049 
M580.651367,253.046448 
	C583.276672,253.046448 585.901978,253.046448 588.527283,253.046448 
	C588.764709,252.512177 589.002075,251.977890 589.239502,251.443619 
	C587.481445,250.329666 585.723450,249.215714 583.651917,247.903137 
	C583.776489,245.680191 583.557861,242.946014 584.201477,240.432663 
	C584.629578,238.761337 586.027405,236.932785 587.510132,236.110718 
	C588.235962,235.708298 590.106445,237.522186 591.529663,238.179810 
	C592.760864,238.748688 594.092102,239.101135 595.764038,239.683304 
	C594.634277,231.318024 590.572144,229.906235 583.613953,234.560516 
	C582.062927,231.424271 581.608337,231.312042 574.545654,232.867645 
	C581.265686,237.048691 579.060913,243.051346 579.174927,247.352173 
	C577.091553,249.333450 575.751038,250.608231 574.410583,251.883011 
	C574.716614,252.270828 575.022705,252.658630 575.328735,253.046448 
	C576.803223,253.046448 578.277710,253.046448 580.651367,253.046448 
M692.449036,252.963333 
	C696.858948,252.963333 701.268799,252.963333 705.678711,252.963333 
	C705.883545,252.357742 706.088440,251.752136 706.293274,251.146545 
	C704.535156,250.212128 702.776978,249.277695 700.637390,248.140533 
	C700.799561,245.522781 700.632629,242.481689 701.311157,239.642624 
	C701.659241,238.186234 703.321777,236.587753 704.768188,236.024811 
	C705.607788,235.698044 707.168335,237.352676 708.456970,238.013367 
	C709.684998,238.642990 710.981262,239.139709 712.247498,239.694855 
	C712.681091,239.204224 713.114685,238.713608 713.548218,238.222977 
	C712.123108,236.274643 711.022095,233.168808 709.194641,232.657181 
	C706.639404,231.941803 703.542480,233.161240 701.838501,233.394135 
	C698.379028,232.695099 695.705505,232.154877 693.031982,231.614655 
	C692.592957,231.983749 692.153992,232.352844 691.714966,232.721939 
	C697.600037,237.098053 696.587769,242.845932 695.219849,248.011093 
	C694.114014,249.461197 693.008240,250.911285 692.449036,252.963333 
M1222.164917,231.961441 
	C1220.424561,231.961441 1218.684204,231.961441 1217.180786,231.961441 
	C1216.327881,229.053467 1218.440918,224.447678 1212.689453,226.486969 
	C1212.580933,228.246918 1212.473511,229.988861 1212.371582,231.642746 
	C1210.417847,231.931961 1208.854004,232.163452 1207.290161,232.394958 
	C1207.108521,232.920029 1206.926758,233.445099 1206.744995,233.970169 
	C1208.548584,234.851334 1210.352295,235.732498 1212.229370,236.649582 
	C1213.663696,252.774948 1215.666992,254.972305 1226.915405,251.487000 
	C1225.749268,250.290619 1224.363281,249.354233 1222.891724,249.191650 
	C1220.244995,248.899170 1217.215698,249.404083 1216.969238,245.574097 
	C1216.761719,242.350601 1216.926636,239.103134 1216.926636,235.746933 
	C1220.180908,235.746933 1222.825317,235.746933 1225.550781,235.746933 
	C1226.737305,232.994003 1226.289673,231.526733 1222.164917,231.961441 
M475.522095,232.033386 
	C472.732971,232.033386 469.943878,232.033386 467.065338,232.033386 
	C466.893951,229.812439 466.757874,228.049301 466.600281,226.007462 
	C465.164612,226.104065 463.957794,226.185257 462.675201,226.271561 
	C462.577515,228.262711 462.497162,229.900970 462.408936,231.699615 
	C460.720276,231.877808 459.115875,232.047119 457.511475,232.216431 
	C457.282013,232.679840 457.052521,233.143250 456.823059,233.606659 
	C458.600006,234.685272 460.376953,235.763885 462.548004,237.081726 
	C462.460724,238.222107 462.297791,239.842422 462.218811,241.466812 
	C461.792542,250.236511 464.710846,253.442001 472.930267,252.937057 
	C474.260101,252.855377 475.528076,251.766937 476.824646,251.143860 
	C475.465271,250.469543 474.154907,249.376923 472.736023,249.210754 
	C470.047882,248.895889 467.119629,249.250702 466.941315,245.418976 
	C466.797119,242.320587 466.912079,239.210114 466.912079,235.746002 
	C469.429352,235.746002 471.623535,236.072723 473.633575,235.606094 
	C474.616272,235.377945 475.256165,233.673370 475.522095,232.033386 
M677.862488,240.433807 
	C677.862488,238.981171 677.862488,237.528534 677.862488,236.128174 
	C686.767090,235.245422 686.767090,235.245422 686.651306,231.772980 
	C683.764343,231.772980 680.852722,231.772980 678.176819,231.772980 
	C677.260254,229.158600 679.530090,224.439728 673.692200,226.466965 
	C673.582581,228.234482 673.474121,229.983124 673.371277,231.640945 
	C671.415466,231.934784 669.850159,232.169937 668.284851,232.405090 
	C668.105469,232.938431 667.926147,233.471756 667.746765,234.005096 
	C669.566040,234.877304 671.385315,235.749527 673.552673,236.788605 
	C673.454773,238.156357 673.312195,239.775620 673.227356,241.397903 
	C672.762695,250.286972 677.080566,254.402161 685.419617,252.888870 
	C686.298401,252.729370 687.025635,251.734985 687.823181,251.127945 
	C686.951599,250.436859 686.133972,249.234009 685.199951,249.135620 
	C677.714478,248.347015 677.707764,248.410889 677.862488,240.433807 
M373.007507,240.395142 
	C373.007507,238.937469 373.007507,237.479797 373.007507,236.066956 
	C381.940918,235.268173 381.940918,235.268173 381.786316,231.781342 
	C378.894958,231.781342 375.982941,231.781342 372.899719,231.781342 
	C372.899719,229.698547 372.899719,228.058502 372.899719,226.206253 
	C371.486542,226.206253 370.264679,226.206253 369.017914,226.206253 
	C368.887848,228.204086 368.772766,229.971970 368.661499,231.680908 
	C366.820557,231.935654 365.255646,232.152206 363.690765,232.368759 
	C363.512848,232.910751 363.334900,233.452744 363.156952,233.994751 
	C364.962250,234.867233 366.767548,235.739731 368.964874,236.801712 
	C368.964874,239.912674 368.453064,243.493179 369.153473,246.818314 
	C369.585632,248.869766 371.541016,251.536682 373.391602,252.134369 
	C376.193817,253.039368 379.501984,252.414062 382.586121,252.259201 
	C382.693573,252.253815 382.704376,250.323914 382.760010,249.294586 
	C373.018677,248.864868 373.018677,248.864868 373.007507,240.395142 
M950.375488,232.068909 
	C949.883789,235.207733 949.883789,235.207733 954.902161,236.531342 
	C954.902161,239.627594 954.729675,242.790482 954.939636,245.927765 
	C955.323669,251.666138 963.424011,255.723053 968.187073,252.528610 
	C968.851379,252.083115 968.713379,250.441422 968.970764,249.241425 
	C958.388672,248.948318 957.424377,247.465729 959.564392,235.878937 
	C968.109253,235.471512 968.109253,235.471512 967.633728,231.816025 
	C964.883423,231.816025 962.097595,231.816025 959.130737,231.816025 
	C959.035828,229.778671 958.953308,228.007782 958.858521,225.973633 
	C957.379395,226.093399 956.176636,226.190796 954.966003,226.288818 
	C954.875977,228.288269 954.801392,229.945084 954.720032,231.752365 
	C953.505737,231.831375 952.360413,231.905914 950.375488,232.068909 
M882.201416,252.767700 
	C885.515320,252.773361 888.862854,253.072861 892.133423,252.699417 
	C895.206543,252.348526 897.879150,251.038803 898.101318,247.196152 
	C898.328796,243.262115 895.606689,242.124451 892.671326,241.173752 
	C890.283447,240.400375 887.851624,239.762695 885.439331,239.064835 
	C885.456421,238.318939 885.473572,237.573029 885.490662,236.827133 
	C888.318909,236.485382 891.153809,235.829117 893.973572,235.888992 
	C896.882874,235.950760 897.835876,235.086151 897.118835,232.093262 
	C894.091248,232.093262 891.268188,231.854599 888.503052,232.152847 
	C884.936279,232.537598 881.354248,233.453506 881.106934,237.998489 
	C880.873535,242.289078 884.508179,242.744263 887.434082,243.752548 
	C889.617371,244.504913 891.834290,245.159348 894.036255,245.857391 
	C893.989990,246.674225 893.943726,247.491074 893.897461,248.307907 
	C889.739868,248.661758 885.582214,249.015610 881.062439,249.400284 
	C881.170227,250.331726 881.293701,251.398865 882.201416,252.767700 
M938.006226,252.935196 
	C941.569397,252.307617 945.057800,251.556046 945.075134,246.851044 
	C945.091736,242.368454 941.568298,241.831192 938.371155,240.882996 
	C936.343872,240.281754 934.369934,239.500702 932.372070,238.800278 
	C932.428833,238.129700 932.485596,237.459106 932.542297,236.788528 
	C934.800537,236.459961 937.050476,235.941132 939.318665,235.843002 
	C943.864014,235.646347 943.868103,235.741302 944.027344,232.077911 
	C941.233459,232.077911 938.426453,231.853622 935.670837,232.133881 
	C932.114441,232.495575 928.473022,233.320923 928.120789,237.827255 
	C927.761963,242.419678 931.700684,242.758514 934.740723,243.850388 
	C936.850830,244.608292 938.984253,245.301315 941.107300,246.023315 
	C940.999939,246.825058 940.892639,247.626801 940.785278,248.428543 
	C936.581299,248.733902 932.377258,249.039276 928.173279,249.344635 
	C927.919495,249.712860 927.665649,250.081085 927.411865,250.449310 
	C928.493530,251.277817 929.480225,252.593353 930.677979,252.826904 
	C932.760193,253.232941 934.972778,252.970810 938.006226,252.935196 
M639.496948,232.650085 
	C635.555298,230.949844 632.534424,232.229446 630.196045,236.205948 
	C630.031128,234.431763 629.928101,233.323242 629.834290,232.313995 
	C627.121704,232.313995 624.722229,232.313995 622.322754,232.313995 
	C621.725342,232.561203 621.127869,232.808395 620.530457,233.055603 
	C629.001465,236.763474 625.334656,243.142502 625.951660,247.715973 
	C624.039246,249.330215 622.627930,250.521530 621.216614,251.712830 
	C621.503784,252.041153 621.791016,252.369492 622.078247,252.697815 
	C626.475708,252.697815 630.873169,252.697815 635.270630,252.697815 
	C635.477600,252.184555 635.684631,251.671280 635.891602,251.158020 
	C634.127991,250.207687 632.364441,249.257370 630.360046,248.177261 
	C630.360046,247.019043 630.263977,245.535782 630.385498,244.070541 
	C630.522461,242.418442 630.512207,240.616699 631.202820,239.187897 
	C631.848816,237.851639 633.182739,236.320312 634.488647,236.002045 
	C635.485657,235.759079 636.880371,237.338516 638.156372,237.993912 
	C639.359436,238.611877 640.638550,239.081741 641.884216,239.616760 
	C642.216003,239.236740 642.547729,238.856735 642.879517,238.476730 
	C641.976807,236.656540 641.074158,234.836365 639.496948,232.650085 
M1115.724487,237.593857 
	C1115.474731,239.712173 1114.945801,241.841675 1115.029907,243.946655 
	C1115.243164,249.275909 1118.353638,252.606155 1123.105469,252.985977 
	C1127.927979,253.371445 1131.435791,250.863998 1132.675049,246.145340 
	C1134.169312,240.456528 1132.089722,234.694489 1127.849731,232.775467 
	C1123.336792,230.732910 1119.387939,232.081406 1115.724487,237.593857 
M1506.845215,250.755722 
	C1504.856934,247.969086 1502.868530,245.182449 1500.937988,242.476730 
	C1503.472778,238.886002 1505.739624,235.674759 1508.053223,232.397385 
	C1501.736816,230.174210 1501.944336,237.037506 1498.506958,238.614044 
	C1493.324097,231.891144 1493.324097,231.891144 1489.127319,232.916733 
	C1496.980591,239.367874 1496.900879,246.052979 1489.079590,252.400177 
	C1495.681152,254.791168 1495.363647,248.034729 1499.054077,246.578354 
	C1500.311890,248.317154 1501.453247,250.128128 1502.829468,251.738388 
	C1504.543701,253.744156 1506.233887,253.540085 1506.845215,250.755722 
M417.122986,229.727280 
	C417.147461,235.204895 416.923309,240.697998 417.263214,246.155960 
	C417.636322,252.147446 423.822723,255.395996 428.880859,252.381821 
	C429.635376,251.932205 429.660278,250.258255 430.110901,248.881271 
	C421.539856,249.346161 421.424622,249.242188 421.410461,241.488968 
	C421.399933,235.726761 421.408386,229.964523 421.408386,224.280457 
	C417.627838,224.280457 414.390350,224.280457 411.152863,224.280457 
	C410.943298,224.669098 410.733704,225.057739 410.524139,225.446396 
	C411.541138,226.216904 412.479980,227.139359 413.597626,227.714066 
	C414.659027,228.259872 415.907501,228.441803 417.122986,229.727280 
M1395.965576,250.331711 
	C1396.733887,251.233154 1397.470581,252.881195 1398.275757,252.915451 
	C1403.709351,253.146622 1409.157593,253.036026 1414.628418,253.036026 
	C1414.469238,250.864273 1414.469238,250.864273 1400.510010,248.603928 
	C1400.510010,240.922623 1400.510010,233.177887 1400.510010,225.258698 
	C1398.952881,225.258698 1397.747070,225.258698 1396.005005,225.258698 
	C1396.005005,233.481262 1396.005005,241.417694 1395.965576,250.331711 
M778.955017,242.606033 
	C780.103394,239.219528 781.251709,235.833023 782.388367,232.480820 
	C779.183228,231.089111 777.884949,232.390198 777.099792,235.095032 
	C775.772461,239.667908 774.234131,244.179550 772.467529,249.708771 
	C770.708069,244.183243 769.164307,239.657745 767.842407,235.068329 
	C766.983887,232.087677 765.467163,231.115509 762.465515,232.574371 
	C764.619080,238.636093 766.607178,244.606201 768.929199,250.443466 
	C769.377991,251.571640 771.193298,252.927826 772.269226,252.840225 
	C773.623291,252.729965 775.334900,251.517273 776.051025,250.289536 
	C777.281555,248.180252 777.860901,245.691071 778.955017,242.606033 
M445.351959,231.948853 
	C442.578552,231.948853 439.805176,231.948853 437.023895,231.948853 
	C436.024963,238.425613 441.953094,234.067078 443.113342,236.472290 
	C443.113342,240.705368 443.113342,244.791565 443.113342,248.611832 
	C440.749512,250.392517 435.728333,247.105927 435.473114,252.894226 
	C442.061279,252.894226 447.851898,252.894226 453.638336,252.894226 
	C453.677032,249.529297 453.677032,249.529297 447.965790,248.753021 
	C447.965790,244.511032 448.097290,240.215851 447.888550,235.937302 
	C447.822845,234.590958 446.844086,233.289154 445.351959,231.948853 
M787.313110,249.852295 
	C787.807617,250.907822 788.265991,252.859070 788.802246,252.880737 
	C794.360596,253.105270 799.931458,253.018860 805.460510,253.018860 
	C806.052734,246.817413 800.647583,250.840225 798.973511,247.860703 
	C798.973511,243.053696 798.973511,237.642242 798.973511,232.203979 
	C795.266418,232.203979 791.832703,232.203979 788.313599,232.203979 
	C787.725037,238.278717 793.089050,234.249802 794.739075,236.314133 
	C794.739075,240.572708 794.739075,244.831299 794.739075,249.377884 
	C792.362244,249.377884 790.216919,249.377884 787.313110,249.852295 
M1233.267700,249.398560 
	C1232.887207,250.446152 1232.506714,251.493744 1232.021729,252.828857 
	C1238.745850,252.828857 1244.680176,252.828857 1250.741577,252.828857 
	C1251.575073,247.086517 1246.391479,250.518082 1244.412109,248.147461 
	C1244.412109,246.224075 1244.411499,243.772888 1244.412231,241.321716 
	C1244.415161,231.498413 1244.415039,231.494568 1234.502197,232.069901 
	C1234.217407,232.086441 1233.949097,232.388931 1233.617310,232.592270 
	C1233.038452,238.208069 1238.201172,234.326065 1239.855469,236.393433 
	C1239.855469,240.546677 1239.855469,244.794479 1239.855469,249.267593 
	C1237.770142,249.267593 1235.953735,249.267593 1233.267700,249.398560 
M400.982422,236.621964 
	C400.982422,235.186218 400.982422,233.750473 400.982422,232.175781 
	C397.084229,232.175781 393.669983,232.175781 390.130157,232.175781 
	C389.408203,238.335983 395.004791,234.131989 396.668884,236.833267 
	C396.668884,240.450180 396.668884,244.546112 396.668884,248.617874 
	C389.272064,250.179413 389.272064,250.179413 389.490143,252.711700 
	C395.381866,252.711700 401.261505,252.711700 407.118286,252.711700 
	C407.749817,246.968933 403.073975,250.445084 400.979309,248.505798 
	C400.979309,245.173859 400.979309,241.384125 400.982422,236.621964 
M1054.453857,253.026733 
	C1057.240234,253.026733 1060.026611,253.026733 1062.918457,253.026733 
	C1064.052979,247.012085 1059.001221,250.400009 1056.888550,248.422638 
	C1056.888550,243.362457 1056.888550,237.805359 1056.888550,232.194748 
	C1053.024414,232.194748 1049.604614,232.194748 1046.133423,232.194748 
	C1045.396362,238.451736 1051.096680,234.042145 1052.647705,236.802338 
	C1052.647705,240.494019 1052.647705,244.589737 1052.647705,248.652145 
	C1045.204712,250.099518 1045.204712,250.099518 1045.596680,253.026733 
	C1048.211304,253.026733 1050.852295,253.026733 1054.453857,253.026733 
M1421.016602,249.337082 
	C1420.567383,250.368164 1420.118042,251.399246 1419.503418,252.809647 
	C1426.140991,252.809647 1432.035034,252.809647 1438.036621,252.809647 
	C1438.968018,246.986649 1433.796387,250.558716 1431.795776,248.209717 
	C1431.795776,243.216232 1431.795776,237.665283 1431.795776,232.257935 
	C1427.914307,232.257935 1424.502808,232.257935 1421.077759,232.257935 
	C1420.510864,238.451843 1426.229248,233.973679 1427.571289,236.522247 
	C1427.571289,240.620850 1427.571289,244.703262 1427.571289,249.279449 
	C1425.549072,249.279449 1423.754517,249.279449 1421.016602,249.337082 
M731.108826,253.026733 
	C733.498535,252.985123 736.684875,253.686066 734.603455,249.400833 
	C732.741821,249.282974 730.985901,249.171814 728.783813,249.032394 
	C728.783813,243.197876 728.783813,237.643417 728.783813,232.271866 
	C724.901611,232.271866 721.494080,232.271866 718.074280,232.271866 
	C717.527710,238.453171 723.261841,233.952637 724.555847,236.497284 
	C724.555847,240.647598 724.555847,244.727264 724.555847,248.280884 
	C722.478394,250.996567 716.893005,246.501480 716.897461,253.026733 
	C721.613342,253.026733 725.904785,253.026733 731.108826,253.026733 
M728.467773,224.687897 
	C725.946777,223.271103 724.178345,224.008804 724.052063,226.836060 
	C724.009644,227.785080 725.728699,229.680405 726.572021,229.640839 
	C729.246399,229.515320 730.227722,227.808975 728.467773,224.687897 
M1056.999756,225.216064 
	C1054.928101,223.217697 1053.016113,223.509476 1052.129761,226.140747 
	C1051.837524,227.008514 1053.033325,229.252457 1053.903809,229.474350 
	C1056.614136,230.165268 1057.782715,228.617279 1056.999756,225.216064 
M1427.449341,228.699112 
	C1429.622192,230.464005 1431.555908,230.215546 1432.294922,227.481812 
	C1432.535645,226.591690 1431.255859,224.445267 1430.370728,224.252121 
	C1427.539551,223.634277 1426.593872,225.380478 1427.449341,228.699112 
M401.278992,227.955353 
	C401.856232,225.181137 400.650360,223.658936 397.940002,224.261703 
	C397.081787,224.452560 395.849213,226.690628 396.128082,227.563873 
	C396.960602,230.170746 398.862762,230.539780 401.278992,227.955353 
M442.861725,227.920105 
	C444.189545,228.387314 445.520538,229.159546 446.843414,229.145905 
	C447.270233,229.141495 448.108582,227.003174 447.947327,225.967331 
	C447.828857,225.205933 445.901917,223.937103 445.623077,224.127533 
	C444.475159,224.911484 443.648987,226.166534 442.861725,227.920105 
M794.043884,226.545517 
	C794.427490,229.167984 795.765442,230.673141 798.336914,229.156952 
	C799.137146,228.685104 799.751587,226.331268 799.277893,225.553925 
	C797.738831,223.028214 795.833374,223.621246 794.043884,226.545517 
M1244.481689,225.138657 
	C1242.321289,223.180984 1240.422607,223.626617 1239.593506,226.236862 
	C1239.323486,227.086502 1240.595581,229.278030 1241.481934,229.484604 
	C1244.236450,230.126434 1245.312378,228.471619 1244.481689,225.138657 
z"/>
<path fill="#ECECEC" opacity="1.000000" stroke="none" 
	d="
M965.792969,160.308762 
	C966.273560,160.885376 967.007446,161.304977 967.176819,161.141083 
	C970.829041,157.607147 975.091980,157.920776 979.265747,159.552612 
	C983.344604,161.147278 984.615479,164.955612 984.742676,168.913696 
	C984.961365,175.716324 984.803223,182.531052 984.803223,189.688263 
	C982.743103,189.688263 980.849854,189.688263 978.473267,189.688263 
	C978.473267,183.621399 978.507385,177.489639 978.460449,171.358490 
	C978.432190,167.669586 978.022156,164.180496 973.110046,163.973068 
	C968.670471,163.785599 966.243530,165.955124 966.057556,171.001663 
	C965.831665,177.128860 966.003906,183.270737 966.003906,189.719696 
	C963.579285,189.719696 961.685852,189.719696 959.542236,189.719696 
	C959.542236,175.267212 959.542236,160.849701 959.542236,146.196671 
	C961.491028,146.196671 963.266968,146.196671 965.783447,146.196671 
	C965.783447,150.723404 965.783447,155.301697 965.792969,160.308762 
z"/>
<path fill="#F6F6F6" opacity="1.000000" stroke="none" 
	d="
M862.524841,177.018417 
	C861.252563,177.018463 860.422302,177.018463 859.574463,177.018463 
	C860.683594,184.142899 864.593506,185.791977 877.719727,184.622177 
	C877.973633,186.168030 878.231506,187.737640 878.699524,190.587173 
	C873.072388,190.223267 867.711853,190.629486 862.764832,189.388107 
	C854.413147,187.292404 850.825500,177.894760 853.837891,168.026657 
	C856.167725,160.394363 863.004089,156.835068 871.289795,159.065933 
	C876.614807,160.499680 879.116455,164.458282 879.860718,169.596146 
	C880.187378,171.851089 879.915710,174.192703 879.915710,177.018372 
	C874.179382,177.018372 868.573059,177.018372 862.524841,177.018417 
M862.837219,165.076859 
	C861.364563,167.068497 859.891907,169.060150 857.874817,171.788071 
	C864.179626,171.788071 869.138000,171.788071 874.126587,171.788071 
	C873.420166,164.909653 870.526855,163.072540 862.837219,165.076859 
z"/>
<path fill="#F5F5F5" opacity="1.000000" stroke="none" 
	d="
M822.866882,190.204834 
	C817.492554,190.526443 818.894714,187.262299 819.281799,184.153381 
	C822.527344,184.397995 825.761108,184.775238 829.000732,184.836227 
	C830.968201,184.873245 833.078613,184.766754 834.871887,184.071945 
	C836.132141,183.583649 837.464355,182.122391 837.789001,180.847275 
	C837.961548,180.169449 836.224548,178.504684 835.060486,178.082962 
	C831.794312,176.899628 828.359497,176.192093 825.026062,175.181610 
	C821.362000,174.070877 818.828674,171.937210 819.040527,167.703568 
	C819.248413,163.549606 821.359558,160.522751 825.414368,159.870361 
	C831.251282,158.931274 837.194946,158.655243 843.743774,158.034531 
	C843.470886,160.660690 843.309570,162.212952 843.140442,163.840408 
	C838.497070,164.090042 834.038147,164.095108 829.661926,164.699112 
	C828.233521,164.896271 827.020569,166.653778 825.709045,167.697678 
	C826.982239,168.766785 828.094116,170.260681 829.561707,170.818192 
	C832.802063,172.049179 836.267151,172.674973 839.555725,173.796341 
	C843.156860,175.024292 844.762451,177.825256 844.560608,181.542435 
	C844.363647,185.169342 842.757568,188.369812 839.065308,188.984024 
	C833.876892,189.847107 828.547729,189.863876 822.866882,190.204834 
z"/>
<path fill="#F5F5F5" opacity="1.000000" stroke="none" 
	d="
M913.090576,164.510071 
	C908.715332,164.559692 904.761597,164.559692 900.371521,164.559692 
	C900.371521,169.653076 900.216431,174.214737 900.418274,178.760559 
	C900.595398,182.748093 903.149536,184.683304 906.969116,184.815231 
	C909.444275,184.900696 911.932434,184.607468 914.819824,184.463776 
	C915.008545,186.103455 915.206299,187.821503 915.430664,189.770569 
	C913.965393,189.958282 912.844849,190.128952 911.718506,190.241974 
	C898.125244,191.606216 894.101135,188.047043 893.990662,174.551788 
	C893.964966,171.411728 893.986877,168.271271 893.986877,164.832031 
	C891.368225,164.643433 888.969482,164.470673 886.384033,164.284470 
	C886.295837,162.589493 886.219788,161.128098 886.119202,159.194901 
	C888.691040,159.194901 891.096375,159.194901 893.909302,159.194901 
	C893.909302,155.672058 893.909302,152.584717 893.909302,149.247375 
	C896.196533,149.247375 898.082703,149.247375 900.220947,149.247375 
	C900.220947,152.356491 900.220947,155.328766 900.220947,158.845795 
	C904.960449,158.845795 909.483276,158.845795 914.774353,158.845795 
	C914.252747,161.165863 913.882446,162.813156 913.090576,164.510071 
z"/>
<path fill="#F7F7F7" opacity="1.000000" stroke="none" 
	d="
M948.112122,190.145416 
	C944.203796,190.234741 940.702576,190.459702 937.229553,190.239731 
	C930.797302,189.832352 926.201660,186.662216 924.240784,180.375137 
	C922.036499,173.307404 924.107239,165.264938 928.849670,161.556412 
	C933.339905,158.045151 942.370728,157.399368 947.337158,160.456238 
	C948.935730,161.440140 950.166809,163.021072 951.911499,164.651794 
	C950.030884,166.118393 948.644043,167.199875 947.317017,168.234741 
	C941.523254,163.687180 937.599060,163.002594 933.629333,165.693222 
	C930.163635,168.042160 928.754822,173.488159 930.341248,178.403641 
	C932.138916,183.973694 935.916443,185.252625 949.932922,184.630493 
	C949.422913,186.614548 948.977478,188.347443 948.112122,190.145416 
z"/>
<path fill="#F1F1F1" opacity="1.000000" stroke="none" 
	d="
M851.129272,239.172272 
	C851.090149,244.296844 851.320801,248.972595 850.947144,253.599533 
	C850.417297,260.161804 840.811768,265.106628 835.239014,261.785156 
	C834.568970,261.385742 834.570496,259.859619 834.230530,258.757599 
	C838.772339,256.831207 846.058472,260.967621 846.821350,252.537567 
	C846.340515,252.224335 845.998962,251.846008 845.825500,251.911667 
	C841.655334,253.491089 837.650818,253.939896 834.624268,249.825485 
	C832.024597,246.291428 832.150574,237.745239 835.117981,234.746628 
	C836.498352,233.351700 838.739685,232.438324 840.726440,232.097260 
	C844.042969,231.527954 847.336365,235.499191 851.129272,230.819702 
	C851.129272,234.457077 851.129272,236.579376 851.129272,239.172272 
M842.424011,235.644363 
	C840.733093,236.925903 837.886292,237.997314 837.606689,239.535416 
	C837.117798,242.224609 837.585876,245.561691 838.935059,247.881668 
	C839.487549,248.831650 844.130432,248.756088 845.585999,247.548386 
	C848.701721,244.963211 847.018921,238.153229 842.424011,235.644363 
M846.431946,251.972061 
	C846.505554,251.735336 846.579163,251.498611 846.652771,251.261917 
	C846.426880,251.342316 846.201050,251.422714 846.431946,251.972061 
z"/>
<path fill="#F1F1F1" opacity="1.000000" stroke="none" 
	d="
M310.158203,237.648499 
	C311.638550,242.811096 313.027985,247.578598 314.493469,252.606979 
	C308.359344,254.232681 310.201416,248.714630 308.329681,246.280701 
	C305.449371,246.280701 302.336975,246.280701 299.326263,246.280701 
	C296.927521,248.110184 299.387573,254.192749 292.934631,252.718979 
	C295.584534,243.451004 298.201935,234.296677 300.830963,225.101746 
	C302.787537,225.101746 304.434906,225.101746 306.555817,225.101746 
	C307.706024,229.082077 308.886658,233.167740 310.158203,237.648499 
M307.092957,240.768616 
	C306.081421,236.952316 305.069855,233.136032 304.058289,229.319733 
	C303.786743,229.379578 303.515167,229.439423 303.243591,229.499283 
	C302.179077,233.576889 301.114563,237.654480 299.874390,242.404984 
	C302.626343,242.115326 304.837097,241.882645 307.092957,240.768616 
z"/>
<path fill="#F0F0F0" opacity="1.000000" stroke="none" 
	d="
M905.977051,258.083191 
	C908.291870,256.957520 910.237793,255.882202 911.616089,255.120575 
	C908.385010,247.217163 905.442505,240.019485 902.499939,232.821808 
	C902.858215,232.371689 903.216553,231.921555 903.574890,231.471436 
	C904.957825,232.538361 906.969788,233.319397 907.608521,234.724609 
	C909.714600,239.358612 911.323792,244.218460 913.479492,249.934845 
	C915.143738,244.301102 916.746033,239.770508 917.766663,235.112488 
	C918.463501,231.932709 919.982483,231.426285 922.996033,232.423538 
	C920.694153,239.519989 918.600342,246.629303 916.072021,253.580566 
	C913.671997,260.179047 910.468933,262.022003 902.259094,260.859070 
	C903.375427,259.950592 904.491821,259.042084 905.977051,258.083191 
z"/>
<path fill="#F0F0F0" opacity="1.000000" stroke="none" 
	d="
M485.728821,234.048813 
	C487.682495,239.214066 489.475769,244.012558 491.689514,249.936188 
	C493.002808,245.491409 493.721436,241.976837 495.097534,238.741959 
	C496.212799,236.120331 494.876465,230.994186 501.341583,232.274887 
	C498.756866,240.065475 496.462891,247.763489 493.628876,255.257278 
	C491.604370,260.610535 486.951172,262.284729 480.870300,262.088013 
	C480.878510,255.660110 490.156006,259.540253 489.981903,255.677750 
	C486.504639,247.039795 483.651642,239.952652 480.798645,232.865494 
	C480.991516,232.480621 481.184357,232.095749 481.377228,231.710876 
	C482.774261,232.367935 484.171326,233.024994 485.728821,234.048813 
z"/>
<path fill="#F1F1F1" opacity="1.000000" stroke="none" 
	d="
M756.103271,249.514465 
	C755.997864,250.856644 755.459290,252.796478 755.259949,252.762222 
	C750.989563,252.028564 746.215942,251.997482 742.662109,249.915070 
	C738.713379,247.601227 739.343140,242.574738 740.230347,238.472351 
	C741.252625,233.745407 746.068054,231.128571 751.092896,232.115021 
	C756.079102,233.093903 758.233337,236.950699 757.497253,244.178467 
	C753.153992,244.178467 748.749817,244.178467 743.893433,244.178467 
	C746.315918,250.930756 751.547974,248.850769 756.103271,249.514465 
M753.940491,239.852966 
	C753.388306,236.568741 751.149231,235.129913 748.242126,235.978378 
	C746.427917,236.507874 745.028259,238.457733 743.442505,239.770203 
	C743.757812,240.078278 744.073120,240.386353 744.388428,240.694427 
	C747.513855,240.694427 750.639343,240.694427 753.940491,239.852966 
z"/>
<path fill="#ECECEC" opacity="1.000000" stroke="none" 
	d="
M1187.099121,234.827438 
	C1187.581543,233.588089 1188.023560,232.232468 1188.739258,232.068115 
	C1196.662964,230.248260 1201.596069,234.272522 1201.759277,242.446030 
	C1201.816162,245.286911 1200.549805,248.720490 1204.887817,249.891861 
	C1205.184814,249.972046 1205.036987,251.699524 1205.151733,253.568420 
	C1202.223511,252.860611 1199.830688,252.282227 1196.416626,251.456985 
	C1194.559326,253.295166 1190.683105,254.357544 1187.055542,251.795319 
	C1185.500000,250.696609 1184.301392,247.379791 1184.736694,245.482925 
	C1186.293945,238.696960 1192.564941,240.496765 1197.555176,239.693954 
	C1195.840576,233.436829 1190.275146,237.307648 1187.099121,234.827438 
M1195.405029,243.316498 
	C1193.635376,243.565308 1191.648804,243.390564 1190.145630,244.160019 
	C1187.758789,245.381897 1187.381958,247.809402 1189.926636,248.954895 
	C1191.498779,249.662567 1194.158813,249.136902 1195.730347,248.179779 
	C1196.556396,247.676712 1196.092529,245.055237 1195.405029,243.316498 
z"/>
<path fill="#F0F0F0" opacity="1.000000" stroke="none" 
	d="
M985.781494,244.118805 
	C983.048096,244.118805 980.787170,244.118805 978.224609,244.118805 
	C979.770508,249.430954 983.476562,249.349503 987.204529,249.249817 
	C990.409973,249.164093 990.410278,249.175613 990.721191,253.258881 
	C987.039917,252.875153 983.351257,253.001602 979.986633,252.018692 
	C975.089478,250.588074 972.881836,245.078400 974.205811,239.261810 
	C975.348999,234.239243 979.321716,231.456345 984.526306,232.032196 
	C990.155518,232.655014 992.529541,236.583023 991.633057,244.118820 
	C989.862854,244.118820 988.058350,244.118820 985.781494,244.118805 
M978.110046,239.919250 
	C981.370239,240.370193 984.630371,240.821136 987.890564,241.272064 
	C988.158020,240.653412 988.425537,240.034760 988.692993,239.416122 
	C987.232605,238.222122 985.694885,235.978470 984.329895,236.079025 
	C982.259033,236.231613 980.308167,238.012863 978.110046,239.919250 
z"/>
<path fill="#F0F0F0" opacity="1.000000" stroke="none" 
	d="
M659.788574,253.019394 
	C649.934692,252.937408 646.132996,250.016098 645.977600,242.760117 
	C645.827942,235.778702 649.721741,231.605576 656.014771,232.002945 
	C661.977783,232.379471 664.550049,236.358154 663.630005,244.167480 
	C659.396912,244.167480 655.121582,244.167480 650.157776,244.167480 
	C652.638428,250.801605 657.897766,248.930328 663.207764,250.272263 
	C662.217163,251.184738 661.226562,252.097229 659.788574,253.019394 
M655.515137,235.757263 
	C652.252075,235.841064 650.316284,237.277847 650.205444,240.638870 
	C653.604492,240.638870 656.802185,240.638870 659.999878,240.638870 
	C660.231750,240.243927 660.463562,239.848969 660.695435,239.454025 
	C659.245667,238.248581 657.795837,237.043152 655.515137,235.757263 
z"/>
<path fill="#EAEAEA" opacity="1.000000" stroke="none" 
	d="
M1359.127930,231.979980 
	C1364.357300,231.934662 1366.473877,234.806183 1366.708496,239.154358 
	C1366.948608,243.607925 1366.761597,248.084518 1366.761597,252.791656 
	C1365.222046,252.791656 1364.000610,252.791656 1362.404419,252.791656 
	C1362.404419,248.410522 1362.736084,244.230759 1362.234863,240.153397 
	C1362.044922,238.608917 1359.934814,237.300522 1358.699951,235.884491 
	C1357.159912,237.283005 1354.543945,238.511642 1354.291138,240.113358 
	C1353.653320,244.153351 1354.079834,248.361404 1354.079834,252.767517 
	C1352.527954,252.767517 1351.302612,252.767517 1349.943359,252.767517 
	C1349.943359,245.906372 1349.943359,239.132538 1349.943359,232.043137 
	C1352.950317,231.932373 1355.948975,234.688416 1359.127930,231.979980 
z"/>
<path fill="#EAEAEA" opacity="1.000000" stroke="none" 
	d="
M810.801514,244.893402 
	C810.801514,240.433838 810.801514,236.451324 810.801514,232.923035 
	C814.509827,232.601486 818.013672,231.996719 821.502930,232.071609 
	C825.821533,232.164276 827.510925,235.290863 827.706421,239.110733 
	C827.934326,243.561798 827.759583,248.033463 827.759583,252.763535 
	C826.251709,252.763535 825.029419,252.763535 823.407288,252.763535 
	C823.407288,248.479996 823.734131,244.308838 823.241821,240.236725 
	C823.052551,238.671143 820.997620,237.331100 819.792847,235.888275 
	C818.226013,237.251587 815.558472,238.439240 815.307434,240.012543 
	C814.663330,244.048676 815.092346,248.256058 815.092346,252.714203 
	C813.605896,252.714203 812.397400,252.714203 810.801514,252.714203 
	C810.801514,250.278381 810.801514,247.824417 810.801514,244.893402 
z"/>
<path fill="#F0F0F0" opacity="1.000000" stroke="none" 
	d="
M1443.493164,237.288910 
	C1443.493286,235.349884 1443.493286,233.871658 1443.493286,231.527740 
	C1445.447021,232.314056 1446.864990,232.884735 1448.680420,233.615372 
	C1454.978638,229.706650 1460.128052,232.277710 1460.368164,240.227264 
	C1460.492920,244.356750 1460.390137,248.493118 1460.390137,252.810272 
	C1458.977783,252.873413 1457.858154,252.923462 1456.129883,253.000717 
	C1456.129883,248.743652 1456.114868,244.660080 1456.135376,240.576691 
	C1456.148193,238.020248 1455.702148,235.842865 1452.461548,235.863953 
	C1449.366699,235.884094 1447.971313,237.580566 1447.965576,240.567764 
	C1447.958008,244.527390 1447.963745,248.487030 1447.963745,252.732742 
	C1446.286133,252.732742 1445.070190,252.732742 1443.493164,252.732742 
	C1443.493164,247.667801 1443.493164,242.708755 1443.493164,237.288910 
z"/>
<path fill="#F0F0F0" opacity="1.000000" stroke="none" 
	d="
M1288.950684,235.889481 
	C1285.439087,235.888809 1283.977905,237.505402 1283.970459,240.517914 
	C1283.960571,244.480911 1283.968140,248.443939 1283.968140,252.748535 
	C1282.318237,252.826569 1281.096558,252.884354 1279.677002,252.951492 
	C1279.677002,245.900543 1279.677002,239.137390 1279.677002,231.568466 
	C1281.487061,232.317062 1282.905029,232.903534 1284.323120,233.490021 
	C1284.255981,233.223450 1284.188843,232.956894 1284.121704,232.690338 
	C1287.002930,232.690338 1290.475220,231.704559 1292.594238,232.975464 
	C1294.598755,234.177567 1295.848755,237.651779 1296.235474,240.301071 
	C1296.826538,244.350647 1296.390381,248.550125 1296.390381,252.849884 
	C1294.937500,252.849884 1293.805176,252.849884 1292.134033,252.849884 
	C1292.134033,248.876419 1292.411011,244.914383 1292.009644,241.022308 
	C1291.826904,239.251434 1290.302734,237.618881 1288.950684,235.889481 
z"/>
<path fill="#F0F0F0" opacity="1.000000" stroke="none" 
	d="
M1072.805176,245.999298 
	C1072.805298,248.436264 1072.805298,250.409546 1072.805298,252.747025 
	C1071.332764,252.826813 1070.110107,252.893066 1068.682617,252.970413 
	C1068.682617,245.923752 1068.682617,239.158218 1068.682617,231.600250 
	C1070.453857,232.315002 1071.876099,232.888962 1073.680542,233.617157 
	C1079.976196,229.705688 1085.128418,232.278610 1085.368286,240.228271 
	C1085.492920,244.357529 1085.390137,248.493652 1085.390137,252.810455 
	C1083.977661,252.873535 1082.857910,252.923538 1081.134277,253.000519 
	C1081.134277,248.909775 1081.131836,244.992325 1081.135254,241.074875 
	C1081.137451,238.469711 1081.099731,235.873413 1077.462524,235.865570 
	C1073.991821,235.858093 1072.929688,238.004852 1072.911499,241.061691 
	C1072.902710,242.553162 1072.842163,244.044327 1072.805176,245.999298 
z"/>
<path fill="#EDEDED" opacity="1.000000" stroke="none" 
	d="
M1104.492676,228.095947 
	C1102.677612,230.706802 1101.274658,233.236923 1099.301758,236.795105 
	C1103.562622,236.795105 1106.143433,236.795105 1108.706177,236.795105 
	C1108.824463,240.400558 1108.824463,240.400558 1101.014404,241.089157 
	C1101.014404,244.814926 1101.014404,248.589157 1101.014404,252.779465 
	C1099.457153,252.851028 1098.241211,252.906906 1096.659424,252.979599 
	C1096.659424,248.941238 1096.659424,245.170319 1096.659424,242.093872 
	C1094.801025,239.225586 1089.441284,243.288223 1090.095337,237.236420 
	C1092.148682,237.069534 1094.223755,236.900879 1096.261719,236.735245 
	C1097.802246,225.127182 1100.419922,222.854568 1110.136475,224.538010 
	C1110.029541,227.824539 1110.029541,227.824539 1104.492676,228.095947 
z"/>
<path fill="#F1F1F1" opacity="1.000000" stroke="none" 
	d="
M538.226562,235.238968 
	C540.937561,236.360214 543.636475,236.999420 546.402710,237.654572 
	C546.374207,240.206573 546.374207,240.206573 538.410156,241.212494 
	C538.410156,244.897614 538.410156,248.650406 538.410156,252.713364 
	C536.837097,252.816940 535.625977,252.896683 534.086853,252.998032 
	C534.086853,248.929306 534.086853,245.135849 534.086853,241.756973 
	C532.255798,239.333176 527.027161,243.180695 527.725037,237.242813 
	C529.681763,237.088989 531.603760,236.937897 533.690552,236.773849 
	C533.997986,234.663284 534.102600,232.518829 534.646912,230.492508 
	C535.960999,225.600403 541.753113,222.465347 546.458191,224.189606 
	C547.305420,224.500092 547.673584,226.117828 548.758179,227.984360 
	C542.500366,227.406097 538.057434,228.113434 538.226562,235.238968 
z"/>
<path fill="#EDEDED" opacity="1.000000" stroke="none" 
	d="
M1325.896484,245.186493 
	C1325.579224,236.743744 1327.765991,232.894669 1333.095215,232.059998 
	C1338.432739,231.224030 1342.365356,234.050110 1343.558472,239.579041 
	C1344.888916,245.743423 1342.311523,251.291138 1337.459595,252.706757 
	C1332.145874,254.257080 1327.970459,251.670868 1325.896484,245.186493 
M1331.108276,247.261292 
	C1333.004639,247.740463 1336.231812,249.071213 1336.565186,248.550217 
	C1337.946899,246.391006 1339.036987,243.681534 1339.077759,241.155487 
	C1339.104980,239.463440 1337.175171,236.327621 1336.141235,236.335999 
	C1334.215454,236.351608 1331.368286,237.760742 1330.627930,239.378479 
	C1329.736206,241.327271 1330.639526,244.097519 1331.108276,247.261292 
z"/>
<path fill="#F0F0F0" opacity="1.000000" stroke="none" 
	d="
M1273.369873,240.533279 
	C1273.433472,248.615341 1271.148315,252.249802 1265.865601,252.954956 
	C1260.296387,253.698334 1256.498047,250.653259 1255.574341,244.704575 
	C1254.560791,238.176712 1257.277710,233.188400 1262.423828,232.129059 
	C1267.979614,230.985397 1271.821655,233.812393 1273.369873,240.533279 
M1269.039307,244.172333 
	C1268.961182,242.532669 1269.167847,240.814529 1268.742432,239.270493 
	C1267.970337,236.467361 1265.364990,234.599289 1263.207520,236.253708 
	C1261.324341,237.697754 1260.170532,241.071503 1260.133423,243.613586 
	C1260.107178,245.422562 1262.470215,247.266327 1263.766846,249.094574 
	C1265.496460,247.733276 1267.226196,246.371979 1269.039307,244.172333 
z"/>
<path fill="#F0F0F0" opacity="1.000000" stroke="none" 
	d="
M552.531250,240.518280 
	C554.157288,233.791489 557.989746,230.985733 563.524048,232.131378 
	C568.808228,233.225235 571.414734,238.297089 570.248718,245.216400 
	C569.312988,250.769028 565.460205,253.691467 560.047546,252.954391 
	C554.777405,252.236694 552.465576,248.567337 552.531250,240.518280 
M563.883179,236.448593 
	C561.954895,236.780670 558.722900,236.597595 558.348999,237.543915 
	C557.331238,240.119354 557.101685,243.222534 557.433960,246.012466 
	C557.573730,247.186035 559.970764,248.984695 561.237244,248.901886 
	C562.789551,248.800400 565.379761,247.137085 565.495667,245.951126 
	C565.781128,243.028427 564.908691,239.992569 563.883179,236.448593 
z"/>
<path fill="#E9E9E9" opacity="1.000000" stroke="none" 
	d="
M580.201782,253.046448 
	C578.277710,253.046448 576.803223,253.046448 575.328735,253.046448 
	C575.022705,252.658630 574.716614,252.270828 574.410583,251.883011 
	C575.751038,250.608231 577.091553,249.333450 579.174927,247.352173 
	C579.060913,243.051346 581.265686,237.048691 574.545654,232.867645 
	C581.608337,231.312042 582.062927,231.424271 583.613953,234.560516 
	C590.572144,229.906235 594.634277,231.318024 595.764038,239.683304 
	C594.092102,239.101135 592.760864,238.748688 591.529663,238.179810 
	C590.106445,237.522186 588.235962,235.708298 587.510132,236.110718 
	C586.027405,236.932785 584.629578,238.761337 584.201477,240.432663 
	C583.557861,242.946014 583.776489,245.680191 583.651917,247.903137 
	C585.723450,249.215714 587.481445,250.329666 589.239502,251.443619 
	C589.002075,251.977890 588.764709,252.512177 588.527283,253.046448 
	C585.901978,253.046448 583.276672,253.046448 580.201782,253.046448 
z"/>
<path fill="#E9E9E9" opacity="1.000000" stroke="none" 
	d="
M692.175781,252.662354 
	C693.008240,250.911285 694.114014,249.461197 695.219849,248.011093 
	C696.587769,242.845932 697.600037,237.098053 691.714966,232.721939 
	C692.153992,232.352844 692.592957,231.983749 693.031982,231.614655 
	C695.705505,232.154877 698.379028,232.695099 701.838501,233.394135 
	C703.542480,233.161240 706.639404,231.941803 709.194641,232.657181 
	C711.022095,233.168808 712.123108,236.274643 713.548218,238.222977 
	C713.114685,238.713608 712.681091,239.204224 712.247498,239.694855 
	C710.981262,239.139709 709.684998,238.642990 708.456970,238.013367 
	C707.168335,237.352676 705.607788,235.698044 704.768188,236.024811 
	C703.321777,236.587753 701.659241,238.186234 701.311157,239.642624 
	C700.632629,242.481689 700.799561,245.522781 700.637390,248.140533 
	C702.776978,249.277695 704.535156,250.212128 706.293274,251.146545 
	C706.088440,251.752136 705.883545,252.357742 705.678711,252.963333 
	C701.268799,252.963333 696.858948,252.963333 692.175781,252.662354 
z"/>
<path fill="#ECECEC" opacity="1.000000" stroke="none" 
	d="
M1222.588867,231.961456 
	C1226.289673,231.526733 1226.737305,232.994003 1225.550781,235.746933 
	C1222.825317,235.746933 1220.180908,235.746933 1216.926636,235.746933 
	C1216.926636,239.103134 1216.761719,242.350601 1216.969238,245.574097 
	C1217.215698,249.404083 1220.244995,248.899170 1222.891724,249.191650 
	C1224.363281,249.354233 1225.749268,250.290619 1226.915405,251.487000 
	C1215.666992,254.972305 1213.663696,252.774948 1212.229370,236.649582 
	C1210.352295,235.732498 1208.548584,234.851334 1206.744995,233.970169 
	C1206.926758,233.445099 1207.108521,232.920029 1207.290161,232.394958 
	C1208.854004,232.163452 1210.417847,231.931961 1212.371582,231.642746 
	C1212.473511,229.988861 1212.580933,228.246918 1212.689453,226.486969 
	C1218.440918,224.447678 1216.327881,229.053467 1217.180786,231.961441 
	C1218.684204,231.961441 1220.424561,231.961441 1222.588867,231.961456 
z"/>
<path fill="#ECECEC" opacity="1.000000" stroke="none" 
	d="
M475.786682,232.335220 
	C475.256165,233.673370 474.616272,235.377945 473.633575,235.606094 
	C471.623535,236.072723 469.429352,235.746002 466.912079,235.746002 
	C466.912079,239.210114 466.797119,242.320587 466.941315,245.418976 
	C467.119629,249.250702 470.047882,248.895889 472.736023,249.210754 
	C474.154907,249.376923 475.465271,250.469543 476.824646,251.143860 
	C475.528076,251.766937 474.260101,252.855377 472.930267,252.937057 
	C464.710846,253.442001 461.792542,250.236511 462.218811,241.466812 
	C462.297791,239.842422 462.460724,238.222107 462.548004,237.081726 
	C460.376953,235.763885 458.600006,234.685272 456.823059,233.606659 
	C457.052521,233.143250 457.282013,232.679840 457.511475,232.216431 
	C459.115875,232.047119 460.720276,231.877808 462.408936,231.699615 
	C462.497162,229.900970 462.577515,228.262711 462.675201,226.271561 
	C463.957794,226.185257 465.164612,226.104065 466.600281,226.007462 
	C466.757874,228.049301 466.893951,229.812439 467.065338,232.033386 
	C469.943878,232.033386 472.732971,232.033386 475.786682,232.335220 
z"/>
<path fill="#ECECEC" opacity="1.000000" stroke="none" 
	d="
M677.934814,240.901413 
	C677.707764,248.410889 677.714478,248.347015 685.199951,249.135620 
	C686.133972,249.234009 686.951599,250.436859 687.823181,251.127945 
	C687.025635,251.734985 686.298401,252.729370 685.419617,252.888870 
	C677.080566,254.402161 672.762695,250.286972 673.227356,241.397903 
	C673.312195,239.775620 673.454773,238.156357 673.552673,236.788605 
	C671.385315,235.749527 669.566040,234.877304 667.746765,234.005096 
	C667.926147,233.471756 668.105469,232.938431 668.284851,232.405090 
	C669.850159,232.169937 671.415466,231.934784 673.371277,231.640945 
	C673.474121,229.983124 673.582581,228.234482 673.692200,226.466965 
	C679.530090,224.439728 677.260254,229.158600 678.176819,231.772980 
	C680.852722,231.772980 683.764343,231.772980 686.651306,231.772980 
	C686.767090,235.245422 686.767090,235.245422 677.862488,236.128174 
	C677.862488,237.528534 677.862488,238.981171 677.934814,240.901413 
z"/>
<path fill="#F2F2F2" opacity="1.000000" stroke="none" 
	d="
M373.014893,240.861084 
	C373.018677,248.864868 373.018677,248.864868 382.760010,249.294586 
	C382.704376,250.323914 382.693573,252.253815 382.586121,252.259201 
	C379.501984,252.414062 376.193817,253.039368 373.391602,252.134369 
	C371.541016,251.536682 369.585632,248.869766 369.153473,246.818314 
	C368.453064,243.493179 368.964874,239.912674 368.964874,236.801712 
	C366.767548,235.739731 364.962250,234.867233 363.156952,233.994751 
	C363.334900,233.452744 363.512848,232.910751 363.690765,232.368759 
	C365.255646,232.152206 366.820557,231.935654 368.661499,231.680908 
	C368.772766,229.971970 368.887848,228.204086 369.017914,226.206253 
	C370.264679,226.206253 371.486542,226.206253 372.899719,226.206253 
	C372.899719,228.058502 372.899719,229.698547 372.899719,231.781342 
	C375.982941,231.781342 378.894958,231.781342 381.786316,231.781342 
	C381.940918,235.268173 381.940918,235.268173 373.007507,236.066956 
	C373.007507,237.479797 373.007507,238.937469 373.014893,240.861084 
z"/>
<path fill="#F2F2F2" opacity="1.000000" stroke="none" 
	d="
M950.795288,232.024673 
	C952.360413,231.905914 953.505737,231.831375 954.720032,231.752365 
	C954.801392,229.945084 954.875977,228.288269 954.966003,226.288818 
	C956.176636,226.190796 957.379395,226.093399 958.858521,225.973633 
	C958.953308,228.007782 959.035828,229.778671 959.130737,231.816025 
	C962.097595,231.816025 964.883423,231.816025 967.633728,231.816025 
	C968.109253,235.471512 968.109253,235.471512 959.564392,235.878937 
	C957.424377,247.465729 958.388672,248.948318 968.970764,249.241425 
	C968.713379,250.441422 968.851379,252.083115 968.187073,252.528610 
	C963.424011,255.723053 955.323669,251.666138 954.939636,245.927765 
	C954.729675,242.790482 954.902161,239.627594 954.902161,236.531342 
	C949.883789,235.207733 949.883789,235.207733 950.795288,232.024673 
z"/>
<path fill="#EDEDED" opacity="1.000000" stroke="none" 
	d="
M881.809326,252.616852 
	C881.293701,251.398865 881.170227,250.331726 881.062439,249.400284 
	C885.582214,249.015610 889.739868,248.661758 893.897461,248.307907 
	C893.943726,247.491074 893.989990,246.674225 894.036255,245.857391 
	C891.834290,245.159348 889.617371,244.504913 887.434082,243.752548 
	C884.508179,242.744263 880.873535,242.289078 881.106934,237.998489 
	C881.354248,233.453506 884.936279,232.537598 888.503052,232.152847 
	C891.268188,231.854599 894.091248,232.093262 897.118835,232.093262 
	C897.835876,235.086151 896.882874,235.950760 893.973572,235.888992 
	C891.153809,235.829117 888.318909,236.485382 885.490662,236.827133 
	C885.473572,237.573029 885.456421,238.318939 885.439331,239.064835 
	C887.851624,239.762695 890.283447,240.400375 892.671326,241.173752 
	C895.606689,242.124451 898.328796,243.262115 898.101318,247.196152 
	C897.879150,251.038803 895.206543,252.348526 892.133423,252.699417 
	C888.862854,253.072861 885.515320,252.773361 881.809326,252.616852 
z"/>
<path fill="#EDEDED" opacity="1.000000" stroke="none" 
	d="
M937.568481,252.962006 
	C934.972778,252.970810 932.760193,253.232941 930.677979,252.826904 
	C929.480225,252.593353 928.493530,251.277817 927.411865,250.449310 
	C927.665649,250.081085 927.919495,249.712860 928.173279,249.344635 
	C932.377258,249.039276 936.581299,248.733902 940.785278,248.428543 
	C940.892639,247.626801 940.999939,246.825058 941.107300,246.023315 
	C938.984253,245.301315 936.850830,244.608292 934.740723,243.850388 
	C931.700684,242.758514 927.761963,242.419678 928.120789,237.827255 
	C928.473022,233.320923 932.114441,232.495575 935.670837,232.133881 
	C938.426453,231.853622 941.233459,232.077911 944.027344,232.077911 
	C943.868103,235.741302 943.864014,235.646347 939.318665,235.843002 
	C937.050476,235.941132 934.800537,236.459961 932.542297,236.788528 
	C932.485596,237.459106 932.428833,238.129700 932.372070,238.800278 
	C934.369934,239.500702 936.343872,240.281754 938.371155,240.882996 
	C941.568298,241.831192 945.091736,242.368454 945.075134,246.851044 
	C945.057800,251.556046 941.569397,252.307617 937.568481,252.962006 
z"/>
<path fill="#F0F0F0" opacity="1.000000" stroke="none" 
	d="
M639.834229,232.833130 
	C641.074158,234.836365 641.976807,236.656540 642.879517,238.476730 
	C642.547729,238.856735 642.216003,239.236740 641.884216,239.616760 
	C640.638550,239.081741 639.359436,238.611877 638.156372,237.993912 
	C636.880371,237.338516 635.485657,235.759079 634.488647,236.002045 
	C633.182739,236.320312 631.848816,237.851639 631.202820,239.187897 
	C630.512207,240.616699 630.522461,242.418442 630.385498,244.070541 
	C630.263977,245.535782 630.360046,247.019043 630.360046,248.177261 
	C632.364441,249.257370 634.127991,250.207687 635.891602,251.158020 
	C635.684631,251.671280 635.477600,252.184555 635.270630,252.697815 
	C630.873169,252.697815 626.475708,252.697815 622.078247,252.697815 
	C621.791016,252.369492 621.503784,252.041153 621.216614,251.712830 
	C622.627930,250.521530 624.039246,249.330215 625.951660,247.715973 
	C625.334656,243.142502 629.001465,236.763474 620.530457,233.055603 
	C621.127869,232.808395 621.725342,232.561203 622.322754,232.313995 
	C624.722229,232.313995 627.121704,232.313995 629.834290,232.313995 
	C629.928101,233.323242 630.031128,234.431763 630.196045,236.205948 
	C632.534424,232.229446 635.555298,230.949844 639.834229,232.833130 
z"/>
<path fill="#F2F2F2" opacity="1.000000" stroke="none" 
	d="
M1115.852295,237.211304 
	C1119.387939,232.081406 1123.336792,230.732910 1127.849731,232.775467 
	C1132.089722,234.694489 1134.169312,240.456528 1132.675049,246.145340 
	C1131.435791,250.863998 1127.927979,253.371445 1123.105469,252.985977 
	C1118.353638,252.606155 1115.243164,249.275909 1115.029907,243.946655 
	C1114.945801,241.841675 1115.474731,239.712173 1115.852295,237.211304 
M1119.243286,240.888824 
	C1119.274292,247.201736 1121.496094,250.531342 1124.880737,248.831100 
	C1126.797974,247.867966 1128.455933,244.562485 1128.515869,242.267334 
	C1128.570068,240.186340 1126.783081,237.057236 1124.943115,236.156219 
	C1122.021851,234.725708 1120.145996,237.155807 1119.243286,240.888824 
z"/>
<path fill="#F2F2F2" opacity="1.000000" stroke="none" 
	d="
M1507.032959,251.076141 
	C1506.233887,253.540085 1504.543701,253.744156 1502.829468,251.738388 
	C1501.453247,250.128128 1500.311890,248.317154 1499.054077,246.578354 
	C1495.363647,248.034729 1495.681152,254.791168 1489.079590,252.400177 
	C1496.900879,246.052979 1496.980591,239.367874 1489.127319,232.916733 
	C1493.324097,231.891144 1493.324097,231.891144 1498.506958,238.614044 
	C1501.944336,237.037506 1501.736816,230.174210 1508.053223,232.397385 
	C1505.739624,235.674759 1503.472778,238.886002 1500.937988,242.476730 
	C1502.868530,245.182449 1504.856934,247.969086 1507.032959,251.076141 
z"/>
<path fill="#E5E5E5" opacity="1.000000" stroke="none" 
	d="
M1173.109985,235.613159 
	C1172.934814,240.429703 1172.879639,245.255737 1172.500610,250.056183 
	C1172.405151,251.264511 1171.272949,252.391006 1170.617065,253.555099 
	C1169.880981,253.347595 1169.144775,253.140106 1168.408691,252.932602 
	C1168.408691,247.019806 1168.408691,241.107010 1168.408691,235.194214 
	C1167.697510,235.175186 1166.986450,235.156158 1166.275269,235.137131 
	C1165.958618,237.895752 1165.509033,240.647278 1165.361206,243.414917 
	C1165.202026,246.396927 1165.325439,249.394043 1165.325439,252.721771 
	C1163.930420,252.833450 1162.713135,252.930893 1161.260742,253.047150 
	C1161.260742,246.012131 1161.260742,239.252640 1161.260742,231.472015 
	C1165.108154,232.340866 1168.673096,233.145920 1172.682617,234.402084 
	C1173.121338,235.106506 1173.115723,235.359833 1173.109985,235.613159 
z"/>
<path fill="#E5E5E5" opacity="1.000000" stroke="none" 
	d="
M1009.109741,235.613495 
	C1008.934631,240.430023 1008.879456,245.256027 1008.500549,250.056458 
	C1008.405151,251.264694 1007.272583,252.391052 1006.616699,253.555054 
	C1005.880676,253.347153 1005.144592,253.139236 1004.408508,252.931320 
	C1004.408508,247.014801 1004.408508,241.098267 1004.408508,235.181747 
	C1003.573853,235.172348 1002.739197,235.162933 1001.904602,235.153534 
	C1001.621765,240.895096 1001.338928,246.636658 1001.038086,252.744843 
	C999.930237,252.833466 998.713074,252.930847 997.260742,253.047028 
	C997.260742,246.012039 997.260742,239.252563 997.260742,231.472015 
	C1001.108154,232.340866 1004.673035,233.145950 1008.682556,234.402222 
	C1009.121277,235.106781 1009.115479,235.360138 1009.109741,235.613495 
z"/>
<path fill="#EDEDED" opacity="1.000000" stroke="none" 
	d="
M417.098358,229.255508 
	C415.907501,228.441803 414.659027,228.259872 413.597626,227.714066 
	C412.479980,227.139359 411.541138,226.216904 410.524139,225.446396 
	C410.733704,225.057739 410.943298,224.669098 411.152863,224.280457 
	C414.390350,224.280457 417.627838,224.280457 421.408386,224.280457 
	C421.408386,229.964523 421.399933,235.726761 421.410461,241.488968 
	C421.424622,249.242188 421.539856,249.346161 430.110901,248.881271 
	C429.660278,250.258255 429.635376,251.932205 428.880859,252.381821 
	C423.822723,255.395996 417.636322,252.147446 417.263214,246.155960 
	C416.923309,240.697998 417.147461,235.204895 417.098358,229.255508 
z"/>
<path fill="#ECECEC" opacity="1.000000" stroke="none" 
	d="
M1395.985352,249.842926 
	C1396.005005,241.417694 1396.005005,233.481262 1396.005005,225.258698 
	C1397.747070,225.258698 1398.952881,225.258698 1400.510010,225.258698 
	C1400.510010,233.177887 1400.510010,240.922623 1400.510010,248.603928 
	C1414.469238,250.864273 1414.469238,250.864273 1414.628418,253.036026 
	C1409.157593,253.036026 1403.709351,253.146622 1398.275757,252.915451 
	C1397.470581,252.881195 1396.733887,251.233154 1395.985352,249.842926 
z"/>
<path fill="#F1F1F1" opacity="1.000000" stroke="none" 
	d="
M778.834351,242.983704 
	C777.860901,245.691071 777.281555,248.180252 776.051025,250.289536 
	C775.334900,251.517273 773.623291,252.729965 772.269226,252.840225 
	C771.193298,252.927826 769.377991,251.571640 768.929199,250.443466 
	C766.607178,244.606201 764.619080,238.636093 762.465515,232.574371 
	C765.467163,231.115509 766.983887,232.087677 767.842407,235.068329 
	C769.164307,239.657745 770.708069,244.183243 772.467529,249.708771 
	C774.234131,244.179550 775.772461,239.667908 777.099792,235.095032 
	C777.884949,232.390198 779.183228,231.089111 782.388367,232.480820 
	C781.251709,235.833023 780.103394,239.219528 778.834351,242.983704 
z"/>
<path fill="#E5E5E5" opacity="1.000000" stroke="none" 
	d="
M445.817596,231.957901 
	C446.844086,233.289154 447.822845,234.590958 447.888550,235.937302 
	C448.097290,240.215851 447.965790,244.511032 447.965790,248.753021 
	C453.677032,249.529297 453.677032,249.529297 453.638336,252.894226 
	C447.851898,252.894226 442.061279,252.894226 435.473114,252.894226 
	C435.728333,247.105927 440.749512,250.392517 443.113342,248.611832 
	C443.113342,244.791565 443.113342,240.705368 443.113342,236.472290 
	C441.953094,234.067078 436.024963,238.425613 437.023895,231.948853 
	C439.805176,231.948853 442.578552,231.948853 445.817596,231.957901 
z"/>
<path fill="#F0F0F0" opacity="1.000000" stroke="none" 
	d="
M787.692383,249.615082 
	C790.216919,249.377884 792.362244,249.377884 794.739075,249.377884 
	C794.739075,244.831299 794.739075,240.572708 794.732117,236.312347 
	C793.089050,234.249802 787.725037,238.278717 788.313599,232.203979 
	C791.832703,232.203979 795.266418,232.203979 798.973511,232.203979 
	C798.973511,237.642242 798.973511,243.053696 798.973511,247.860703 
	C800.647583,250.840225 806.052734,246.817413 805.460510,253.018860 
	C799.931458,253.018860 794.360596,253.105270 788.802246,252.880737 
	C788.265991,252.859070 787.807617,250.907822 787.692383,249.615082 
z"/>
<path fill="#ECECEC" opacity="1.000000" stroke="none" 
	d="
M1233.702637,249.333069 
	C1235.953735,249.267593 1237.770142,249.267593 1239.855469,249.267593 
	C1239.855469,244.794479 1239.855469,240.546677 1239.855469,236.393433 
	C1238.201172,234.326065 1233.038452,238.208069 1233.617310,232.592270 
	C1233.949097,232.388931 1234.217407,232.086441 1234.502197,232.069901 
	C1244.415039,231.494568 1244.415161,231.498413 1244.412231,241.321716 
	C1244.411499,243.772888 1244.412109,246.224075 1244.412109,248.147461 
	C1246.391479,250.518082 1251.575073,247.086517 1250.741577,252.828857 
	C1244.680176,252.828857 1238.745850,252.828857 1232.021729,252.828857 
	C1232.506714,251.493744 1232.887207,250.446152 1233.702637,249.333069 
z"/>
<path fill="#F2F2F2" opacity="1.000000" stroke="none" 
	d="
M400.980865,237.108185 
	C400.979309,241.384125 400.979309,245.173859 400.979309,248.505798 
	C403.073975,250.445084 407.749817,246.968933 407.118286,252.711700 
	C401.261505,252.711700 395.381866,252.711700 389.490143,252.711700 
	C389.272064,250.179413 389.272064,250.179413 396.668884,248.617874 
	C396.668884,244.546112 396.668884,240.450180 396.668884,236.833267 
	C395.004791,234.131989 389.408203,238.335983 390.130157,232.175781 
	C393.669983,232.175781 397.084229,232.175781 400.982422,232.175781 
	C400.982422,233.750473 400.982422,235.186218 400.980865,237.108185 
z"/>
<path fill="#F2F2F2" opacity="1.000000" stroke="none" 
	d="
M1053.973511,253.026733 
	C1050.852295,253.026733 1048.211304,253.026733 1045.596680,253.026733 
	C1045.204712,250.099518 1045.204712,250.099518 1052.647705,248.652145 
	C1052.647705,244.589737 1052.647705,240.494019 1052.647705,236.802338 
	C1051.096680,234.042145 1045.396362,238.451736 1046.133423,232.194748 
	C1049.604614,232.194748 1053.024414,232.194748 1056.888550,232.194748 
	C1056.888550,237.805359 1056.888550,243.362457 1056.888550,248.422638 
	C1059.001221,250.400009 1064.052979,247.012085 1062.918457,253.026733 
	C1060.026611,253.026733 1057.240234,253.026733 1053.973511,253.026733 
z"/>
<path fill="#F2F2F2" opacity="1.000000" stroke="none" 
	d="
M1421.488281,249.308258 
	C1423.754517,249.279449 1425.549072,249.279449 1427.571289,249.279449 
	C1427.571289,244.703262 1427.571289,240.620850 1427.571289,236.522247 
	C1426.229248,233.973679 1420.510864,238.451843 1421.077759,232.257935 
	C1424.502808,232.257935 1427.914307,232.257935 1431.795776,232.257935 
	C1431.795776,237.665283 1431.795776,243.216232 1431.795776,248.209717 
	C1433.796387,250.558716 1438.968018,246.986649 1438.036621,252.809647 
	C1432.035034,252.809647 1426.140991,252.809647 1419.503418,252.809647 
	C1420.118042,251.399246 1420.567383,250.368164 1421.488281,249.308258 
z"/>
<path fill="#F2F2F2" opacity="1.000000" stroke="none" 
	d="
M730.652588,253.026733 
	C725.904785,253.026733 721.613342,253.026733 716.897461,253.026733 
	C716.893005,246.501480 722.478394,250.996567 724.555847,248.280884 
	C724.555847,244.727264 724.555847,240.647598 724.555847,236.497284 
	C723.261841,233.952637 717.527710,238.453171 718.074280,232.271866 
	C721.494080,232.271866 724.901611,232.271866 728.783813,232.271866 
	C728.783813,237.643417 728.783813,243.197876 728.783813,249.032394 
	C730.985901,249.171814 732.741821,249.282974 734.603455,249.400833 
	C736.684875,253.686066 733.498535,252.985123 730.652588,253.026733 
z"/>
<path fill="#F5F5F5" opacity="1.000000" stroke="none" 
	d="
M1146.149658,239.374527 
	C1146.149658,242.505966 1146.149658,245.637405 1146.149658,248.164108 
	C1148.144531,249.348236 1149.826294,250.346420 1151.507935,251.344589 
	C1151.286743,251.816254 1151.065552,252.287918 1150.844360,252.759583 
	C1146.422852,252.759583 1142.001343,252.759583 1137.579712,252.759583 
	C1137.282959,252.440842 1136.986328,252.122101 1136.689575,251.803360 
	C1138.035156,250.583466 1139.380859,249.363571 1141.613525,247.339554 
	C1141.604614,243.033829 1143.580566,237.040451 1136.894897,232.725494 
	C1137.294800,232.477081 1137.694824,232.228668 1138.094727,231.980255 
	C1140.336060,232.083603 1142.577393,232.186951 1144.863037,233.103714 
	C1145.321411,235.736267 1145.735474,237.555389 1146.149658,239.374527 
z"/>
<path fill="#ECECEC" opacity="1.000000" stroke="none" 
	d="
M1479.106201,249.509109 
	C1476.878418,252.227844 1474.359253,254.109390 1470.599121,252.529190 
	C1467.056763,251.040482 1466.623169,247.981720 1466.619873,244.702545 
	C1466.615723,240.576279 1466.618896,236.450027 1466.618896,232.148651 
	C1468.064087,232.148651 1469.191406,232.148651 1470.889282,232.148651 
	C1470.889282,236.085754 1470.725830,240.014343 1470.967285,243.917892 
	C1471.068481,245.552521 1471.817871,248.346130 1472.641235,248.489059 
	C1474.391357,248.792831 1476.382812,247.705475 1478.616211,247.300980 
	C1479.006714,248.112106 1479.056396,248.810608 1479.106201,249.509109 
z"/>
<path fill="#ECECEC" opacity="1.000000" stroke="none" 
	d="
M354.106201,249.509125 
	C351.878448,252.227768 349.359222,254.109406 345.599060,252.529175 
	C342.056763,251.040512 341.623230,247.981674 341.619934,244.702545 
	C341.615753,240.576279 341.618896,236.450012 341.618896,232.148621 
	C343.064758,232.148621 344.193146,232.148621 345.889191,232.148621 
	C345.889191,236.085785 345.725677,240.014343 345.967072,243.917862 
	C346.068176,245.552505 346.817627,248.346024 347.641144,248.489029 
	C349.391113,248.792953 351.382721,247.705536 353.616089,247.301086 
	C354.006714,248.112167 354.056458,248.810654 354.106201,249.509125 
z"/>
<path fill="#F7F7F7" opacity="1.000000" stroke="none" 
	d="
M354.146332,249.943054 
	C354.056458,248.810654 354.006714,248.112167 353.912720,247.066360 
	C353.868469,241.939835 353.868469,237.160629 353.868469,232.189728 
	C355.528687,232.189728 356.625214,232.189728 357.839569,232.189728 
	C357.976532,232.629517 358.223022,233.062897 358.229767,233.499969 
	C358.278198,236.645004 358.022491,239.819824 358.375275,242.927063 
	C358.650970,245.355225 357.108063,248.633682 360.913910,249.959595 
	C361.207520,250.061859 360.952545,251.738693 360.952545,253.246353 
	C358.479553,252.064835 354.899567,255.319641 354.146332,249.943054 
z"/>
<path fill="#F7F7F7" opacity="1.000000" stroke="none" 
	d="
M1479.146240,249.943054 
	C1479.056396,248.810608 1479.006714,248.112106 1478.912842,247.066254 
	C1478.868530,241.939743 1478.868530,237.160568 1478.868530,232.189713 
	C1480.528687,232.189713 1481.625244,232.189713 1482.839722,232.189713 
	C1482.976685,232.629578 1483.222900,233.062988 1483.229614,233.500107 
	C1483.278198,236.645111 1483.022583,239.819901 1483.375244,242.927170 
	C1483.650879,245.355408 1482.107788,248.634567 1485.914185,249.958771 
	C1486.205322,250.060043 1485.952515,251.724670 1485.952515,253.246368 
	C1483.479492,252.064926 1479.899536,255.319550 1479.146240,249.943054 
z"/>
<path fill="#F7F7F7" opacity="1.000000" stroke="none" 
	d="
M1173.494141,235.460175 
	C1173.115723,235.359833 1173.121338,235.106506 1173.080322,234.475998 
	C1174.692993,233.503616 1176.446655,232.302887 1177.976196,232.541214 
	C1178.888062,232.683289 1180.000977,235.059174 1180.067017,236.475357 
	C1180.313477,241.775406 1180.165527,247.093796 1180.165527,252.727386 
	C1178.825684,252.808701 1177.618408,252.881958 1176.038086,252.977859 
	C1176.038086,248.070190 1176.183228,243.432587 1175.939087,238.815552 
	C1175.875488,237.613159 1174.598145,236.474915 1173.494141,235.460175 
z"/>
<path fill="#F7F7F7" opacity="1.000000" stroke="none" 
	d="
M1009.493774,235.460388 
	C1009.115479,235.360138 1009.121277,235.106781 1009.080322,234.476166 
	C1010.692871,233.503677 1012.446594,232.302902 1013.976074,232.541153 
	C1014.887878,232.683212 1016.001099,235.059113 1016.066956,236.475296 
	C1016.313416,241.775406 1016.165527,247.093826 1016.165527,252.727402 
	C1014.826355,252.808609 1013.620483,252.881744 1012.038269,252.977676 
	C1012.038269,248.070068 1012.183533,243.432404 1011.939453,238.815308 
	C1011.875854,237.613007 1010.598022,236.474884 1009.493774,235.460388 
z"/>
<path fill="#EAEAEA" opacity="1.000000" stroke="none" 
	d="
M1146.426025,239.110504 
	C1145.735474,237.555389 1145.321411,235.736267 1144.932617,233.515594 
	C1145.715576,233.421387 1146.531250,234.084518 1147.219971,233.971893 
	C1149.651733,233.574249 1152.356567,231.959534 1154.353149,232.623886 
	C1156.236328,233.250549 1157.356689,236.169846 1158.812500,238.080612 
	C1158.404053,238.590576 1157.995605,239.100555 1157.587158,239.610535 
	C1156.331787,239.145401 1154.675781,239.035919 1153.891357,238.152481 
	C1150.789062,234.658417 1149.706909,234.673462 1146.426025,239.110504 
z"/>
<path fill="#E5E5E5" opacity="1.000000" stroke="none" 
	d="
M728.730347,224.947083 
	C730.227722,227.808975 729.246399,229.515320 726.572021,229.640839 
	C725.728699,229.680405 724.009644,227.785080 724.052063,226.836060 
	C724.178345,224.008804 725.946777,223.271103 728.730347,224.947083 
z"/>
<path fill="#E5E5E5" opacity="1.000000" stroke="none" 
	d="
M1057.152588,225.546768 
	C1057.782715,228.617279 1056.614136,230.165268 1053.903809,229.474350 
	C1053.033325,229.252457 1051.837524,227.008514 1052.129761,226.140747 
	C1053.016113,223.509476 1054.928101,223.217697 1057.152588,225.546768 
z"/>
<path fill="#E5E5E5" opacity="1.000000" stroke="none" 
	d="
M1427.260010,228.367783 
	C1426.593872,225.380478 1427.539551,223.634277 1430.370728,224.252121 
	C1431.255859,224.445267 1432.535645,226.591690 1432.294922,227.481812 
	C1431.555908,230.215546 1429.622192,230.464005 1427.260010,228.367783 
z"/>
<path fill="#E5E5E5" opacity="1.000000" stroke="none" 
	d="
M401.130432,228.282959 
	C398.862762,230.539780 396.960602,230.170746 396.128082,227.563873 
	C395.849213,226.690628 397.081787,224.452560 397.940002,224.261703 
	C400.650360,223.658936 401.856232,225.181137 401.130432,228.282959 
z"/>
<path fill="#EAEAEA" opacity="1.000000" stroke="none" 
	d="
M442.783112,227.584229 
	C443.648987,226.166534 444.475159,224.911484 445.623077,224.127533 
	C445.901917,223.937103 447.828857,225.205933 447.947327,225.967331 
	C448.108582,227.003174 447.270233,229.141495 446.843414,229.145905 
	C445.520538,229.159546 444.189545,228.387314 442.783112,227.584229 
z"/>
<path fill="#E5E5E5" opacity="1.000000" stroke="none" 
	d="
M794.145142,226.175446 
	C795.833374,223.621246 797.738831,223.028214 799.277893,225.553925 
	C799.751587,226.331268 799.137146,228.685104 798.336914,229.156952 
	C795.765442,230.673141 794.427490,229.167984 794.145142,226.175446 
z"/>
<path fill="#E5E5E5" opacity="1.000000" stroke="none" 
	d="
M1244.685425,225.461548 
	C1245.312378,228.471619 1244.236450,230.126434 1241.481934,229.484604 
	C1240.595581,229.278030 1239.323486,227.086502 1239.593506,226.236862 
	C1240.422607,223.626617 1242.321289,223.180984 1244.685425,225.461548 
z"/>
<path fill="#161616" opacity="1.000000" stroke="none" 
	d="
M863.204834,164.926514 
	C870.526855,163.072540 873.420166,164.909653 874.126587,171.788071 
	C869.138000,171.788071 864.179626,171.788071 857.874817,171.788071 
	C859.891907,169.060150 861.364563,167.068497 863.204834,164.926514 
z"/>
<path fill="#161616" opacity="1.000000" stroke="none" 
	d="
M842.838501,235.711884 
	C847.018921,238.153229 848.701721,244.963211 845.585999,247.548386 
	C844.130432,248.756088 839.487549,248.831650 838.935059,247.881668 
	C837.585876,245.561691 837.117798,242.224609 837.606689,239.535416 
	C837.886292,237.997314 840.733093,236.925903 842.838501,235.711884 
z"/>
<path fill="#0F0F0F" opacity="1.000000" stroke="none" 
	d="
M846.203552,251.737595 
	C846.201050,251.422714 846.426880,251.342316 846.652771,251.261902 
	C846.579163,251.498611 846.505554,251.735336 846.203552,251.737595 
z"/>
<path fill="#1D1D1D" opacity="1.000000" stroke="none" 
	d="
M307.070374,241.209290 
	C304.837097,241.882645 302.626343,242.115326 299.874390,242.404984 
	C301.114563,237.654480 302.179077,233.576889 303.243591,229.499283 
	C303.515167,229.439423 303.786743,229.379578 304.058289,229.319733 
	C305.069855,233.136032 306.081421,236.952316 307.070374,241.209290 
z"/>
<path fill="#161616" opacity="1.000000" stroke="none" 
	d="
M753.852661,240.273697 
	C750.639343,240.694427 747.513855,240.694427 744.388428,240.694427 
	C744.073120,240.386353 743.757812,240.078278 743.442505,239.770203 
	C745.028259,238.457733 746.427917,236.507874 748.242126,235.978378 
	C751.149231,235.129913 753.388306,236.568741 753.852661,240.273697 
z"/>
<path fill="#1D1D1D" opacity="1.000000" stroke="none" 
	d="
M1195.808105,243.353424 
	C1196.092529,245.055237 1196.556396,247.676712 1195.730347,248.179779 
	C1194.158813,249.136902 1191.498779,249.662567 1189.926636,248.954895 
	C1187.381958,247.809402 1187.758789,245.381897 1190.145630,244.160019 
	C1191.648804,243.390564 1193.635376,243.565308 1195.808105,243.353424 
z"/>
<path fill="#161616" opacity="1.000000" stroke="none" 
	d="
M978.208191,239.510742 
	C980.308167,238.012863 982.259033,236.231613 984.329895,236.079025 
	C985.694885,235.978470 987.232605,238.222122 988.692993,239.416122 
	C988.425537,240.034760 988.158020,240.653412 987.890564,241.272064 
	C984.630371,240.821136 981.370239,240.370193 978.208191,239.510742 
z"/>
<path fill="#161616" opacity="1.000000" stroke="none" 
	d="
M655.930542,235.797485 
	C657.795837,237.043152 659.245667,238.248581 660.695435,239.454025 
	C660.463562,239.848969 660.231750,240.243927 659.999878,240.638870 
	C656.802185,240.638870 653.604492,240.638870 650.205444,240.638870 
	C650.316284,237.277847 652.252075,235.841064 655.930542,235.797485 
z"/>
<path fill="#161616" opacity="1.000000" stroke="none" 
	d="
M1330.937012,246.886719 
	C1330.639526,244.097519 1329.736206,241.327271 1330.627930,239.378479 
	C1331.368286,237.760742 1334.215454,236.351608 1336.141235,236.335999 
	C1337.175171,236.327621 1339.104980,239.463440 1339.077759,241.155487 
	C1339.036987,243.681534 1337.946899,246.391006 1336.565186,248.550217 
	C1336.231812,249.071213 1333.004639,247.740463 1330.937012,246.886719 
z"/>
<path fill="#161616" opacity="1.000000" stroke="none" 
	d="
M1268.997559,244.591522 
	C1267.226196,246.371979 1265.496460,247.733276 1263.766846,249.094574 
	C1262.470215,247.266327 1260.107178,245.422562 1260.133423,243.613586 
	C1260.170532,241.071503 1261.324341,237.697754 1263.207520,236.253708 
	C1265.364990,234.599289 1267.970337,236.467361 1268.742432,239.270493 
	C1269.167847,240.814529 1268.961182,242.532669 1268.997559,244.591522 
z"/>
<path fill="#161616" opacity="1.000000" stroke="none" 
	d="
M564.192505,236.725403 
	C564.908691,239.992569 565.781128,243.028427 565.495667,245.951126 
	C565.379761,247.137085 562.789551,248.800400 561.237244,248.901886 
	C559.970764,248.984695 557.573730,247.186035 557.433960,246.012466 
	C557.101685,243.222534 557.331238,240.119354 558.348999,237.543915 
	C558.722900,236.597595 561.954895,236.780670 564.192505,236.725403 
z"/>
<path fill="#1D1D1D" opacity="1.000000" stroke="none" 
	d="
M1119.327393,240.492920 
	C1120.145996,237.155807 1122.021851,234.725708 1124.943115,236.156219 
	C1126.783081,237.057236 1128.570068,240.186340 1128.515869,242.267334 
	C1128.455933,244.562485 1126.797974,247.867966 1124.880737,248.831100 
	C1121.496094,250.531342 1119.274292,247.201736 1119.327393,240.492920 
z"/>
</svg>