<?xml version="1.0" encoding="UTF-8"?>
<svg version="1.1" xmlns="http://www.w3.org/2000/svg" width="1800" height="400">
<path d="M0 0 C594 0 1188 0 1800 0 C1800 132 1800 264 1800 400 C1206 400 612 400 0 400 C0 268 0 136 0 0 Z " fill="#0F0F0F" transform="translate(0,0)"/>
<path d="M0 0 C1.69576172 -0.03867188 1.69576172 -0.03867188 3.42578125 -0.078125 C8.73851766 0.45632992 12.33030834 3.19821696 15.6875 7.25 C18.38127067 12.90691841 17.6875 16.38665836 17.6875 23.25 C8.7775 23.25 -0.1325 23.25 -9.3125 23.25 C-5.67790408 29.18761625 -5.67790408 29.18761625 -0.3125 32.25 C2.38341571 32.45952713 4.82200509 32.53744431 7.5 32.4375 C8.19287109 32.42396484 8.88574219 32.41042969 9.59960938 32.39648438 C11.29591265 32.36138845 12.99181136 32.30758943 14.6875 32.25 C14.6875 34.56 14.6875 36.87 14.6875 39.25 C11.66568586 39.35867663 8.64783673 39.43762754 5.625 39.5 C4.77744141 39.53351563 3.92988281 39.56703125 3.05664062 39.6015625 C-2.97681729 39.69474332 -6.3639315 38.74085065 -11.3125 35.25 C-16.07307717 30.36075858 -17.41014523 25.56849522 -17.6875 18.875 C-17.57860992 13.53938621 -16.48026508 9.56875368 -13.3125 5.25 C-8.78180354 1.04292472 -6.11804289 0.08314441 0 0 Z " fill="#F6F6F6" transform="translate(855.3125,148.75)"/>
<path d="M0 0 C2.64 0 5.28 0 8 0 C8.33 7.26 8.66 14.52 9 22 C10.32 20.35 11.64 18.7 13 17 C17.60322764 15.9100993 22.70618164 15.92750859 27.046875 17.95703125 C30.29280568 20.48789304 31.79360818 23.1574818 33 27 C33.22705078 30.22973633 33.22705078 30.22973633 33.1953125 33.83203125 C33.18886719 35.12431641 33.18242188 36.41660156 33.17578125 37.74804688 C33.15907327 39.1028673 33.14214342 40.45768501 33.125 41.8125 C33.11496003 43.18684251 33.10583596 44.56119203 33.09765625 45.93554688 C33.07411242 49.29054317 33.04122567 52.64518199 33 56 C30.36 56 27.72 56 25 56 C24.9906543 55.17274414 24.98130859 54.34548828 24.97167969 53.49316406 C24.91799681 49.74483585 24.8343429 45.99775838 24.75 42.25 C24.73582031 40.94804687 24.72164062 39.64609375 24.70703125 38.3046875 C24.67480469 37.05429688 24.64257812 35.80390625 24.609375 34.515625 C24.58842773 33.36352539 24.56748047 32.21142578 24.54589844 31.02441406 C23.89158203 27.39933731 22.90891267 26.1978745 20 24 C17 23.33333333 17 23.33333333 14 24 C11.38329328 25.90948868 10.21753223 27.14592077 9.41430664 30.29956055 C8.99115357 33.05766082 8.79261417 35.73172334 8.68359375 38.51953125 C8.64169922 39.54111328 8.59980469 40.56269531 8.55664062 41.61523438 C8.49766602 43.19788086 8.49766602 43.19788086 8.4375 44.8125 C8.39431641 45.88693359 8.35113281 46.96136719 8.30664062 48.06835938 C8.20089017 50.71212082 8.09879767 53.3559711 8 56 C5.36 56 2.72 56 0 56 C0 37.52 0 19.04 0 0 Z " fill="#F1F1F1" transform="translate(973,132)"/>
<path d="M0 0 C2.64 0 5.28 0 8 0 C8 4.29 8 8.58 8 13 C13.94 13 19.88 13 26 13 C26 15.31 26 17.62 26 20 C20.06 20 14.12 20 8 20 C8.31941066 24.334859 8.65029707 28.66756931 9 33 C9.0721875 33.92296875 9.144375 34.8459375 9.21875 35.796875 C9.47889883 40.37065795 9.47889883 40.37065795 12 44 C14.56916657 44.30599063 17.04758384 44.51087087 19.625 44.625 C20.68460938 44.68300781 20.68460938 44.68300781 21.765625 44.7421875 C23.50998524 44.83647724 25.25495691 44.91932891 27 45 C27 47.31 27 49.62 27 52 C24.12397545 52.10852923 21.25209168 52.1875515 18.375 52.25 C17.56675781 52.28351563 16.75851562 52.31703125 15.92578125 52.3515625 C10.4361029 52.44082556 7.34461278 51.68510192 3 48 C-1.69328441 40.40134906 -0.12026239 28.5252675 0 20 C-2.97 20 -5.94 20 -9 20 C-9 17.69 -9 15.38 -9 13 C-6.03 13 -3.06 13 0 13 C0 8.71 0 4.42 0 0 Z " fill="#F6F6F6" transform="translate(890,136)"/>
<path d="M0 0 C0.88945313 0.00322266 1.77890625 0.00644531 2.6953125 0.00976562 C4.07589844 0.02233398 4.07589844 0.02233398 5.484375 0.03515625 C6.42023437 0.03966797 7.35609375 0.04417969 8.3203125 0.04882812 C10.62506541 0.06058707 12.92968727 0.07702199 15.234375 0.09765625 C15.234375 2.40765625 15.234375 4.71765625 15.234375 7.09765625 C5.334375 7.59265625 5.334375 7.59265625 -4.765625 8.09765625 C-5.095625 9.74765625 -5.425625 11.39765625 -5.765625 13.09765625 C-5.24355469 13.2678125 -4.72148438 13.43796875 -4.18359375 13.61328125 C-2.61644874 14.12925894 -1.05152246 14.65200069 0.51171875 15.1796875 C2.3954933 15.81481952 4.28389022 16.43634443 6.17578125 17.046875 C7.14386719 17.37300781 8.11195313 17.69914062 9.109375 18.03515625 C10.01429688 18.33292969 10.91921875 18.63070312 11.8515625 18.9375 C14.61138458 20.28121665 15.70950501 21.45388816 17.234375 24.09765625 C17.64337456 27.84681888 17.54047432 30.34941346 16.109375 33.84765625 C13.61702585 36.83847523 11.92507471 37.71364386 8.234375 39.09765625 C4.10186604 39.45806233 0.00345334 39.38033826 -4.140625 39.28515625 C-5.81705078 39.26485352 -5.81705078 39.26485352 -7.52734375 39.24414062 C-10.27393711 39.20892789 -13.01952789 39.15967721 -15.765625 39.09765625 C-15.80816856 37.09810879 -15.80643283 35.09723989 -15.765625 33.09765625 C-14.19096627 31.52299752 -12.5477073 31.89711217 -10.36328125 31.81640625 C-9.02813477 31.76033203 -9.02813477 31.76033203 -7.66601562 31.703125 C-6.72951172 31.66832031 -5.79300781 31.63351563 -4.828125 31.59765625 C-2.98551741 31.52889273 -1.14305211 31.45616707 0.69921875 31.37890625 C1.520271 31.34861328 2.34132324 31.31832031 3.18725586 31.28710938 C5.29899666 31.21654835 5.29899666 31.21654835 7.234375 30.09765625 C7.234375 28.44765625 7.234375 26.79765625 7.234375 25.09765625 C6.22117187 24.8553125 5.20796875 24.61296875 4.1640625 24.36328125 C2.81234667 24.02535229 1.46079257 23.68677601 0.109375 23.34765625 C-0.55578125 23.19039062 -1.2209375 23.033125 -1.90625 22.87109375 C-6.8777786 21.60384136 -11.06150279 19.80177846 -14.765625 16.09765625 C-15.35023073 12.10161708 -15.94658592 7.80947257 -13.56640625 4.359375 C-9.27000839 0.69066247 -5.45404853 -0.03496185 0 0 Z " fill="#F5F5F5" transform="translate(810.765625,148.90234375)"/>
<path d="M0 0 C2.02949076 1.44200659 3.75679888 2.79959869 5.375 4.6875 C4.32625002 7.30937494 3.72568687 8.48121361 1.25 9.9375 C0.63125 10.185 0.0125 10.4325 -0.625 10.6875 C-1.24375 10.0275 -1.8625 9.3675 -2.5 8.6875 C-6.88514723 5.88100577 -10.55146274 5.78091711 -15.625 6.6875 C-18.99731504 8.22598629 -18.99731504 8.22598629 -20.625 11.6875 C-21.36099161 17.41715511 -21.67437869 23.59636341 -18.625 28.6875 C-13.94190953 31.0360769 -9.36029429 30.9326335 -4.25 30.8125 C-3.51394531 30.80347656 -2.77789063 30.79445312 -2.01953125 30.78515625 C-0.2212112 30.76180144 1.57693911 30.72593836 3.375 30.6875 C3.375 32.9975 3.375 35.3075 3.375 37.6875 C0.04214074 37.83435185 -3.28987345 37.92207648 -6.625 38 C-7.55957031 38.04189453 -8.49414062 38.08378906 -9.45703125 38.12695312 C-16.06584578 38.24249184 -20.60353129 37.13772326 -25.625 32.6875 C-30.55034897 26.44287634 -30.41788539 19.35205877 -29.625 11.6875 C-28.40849466 5.98701628 -25.27060725 2.91098258 -20.625 -0.3125 C-14.28425549 -2.4951528 -6.21182611 -2.24910945 0 0 Z " fill="#F7F7F7" transform="translate(957.625,150.3125)"/>
<path d="M0 0 C0.99 0.66 1.98 1.32 3 2 C3.33 1.34 3.66 0.68 4 0 C5.65 0 7.3 0 9 0 C9.1455841 4.54132797 9.23417333 9.08205341 9.3125 13.625 C9.35439453 14.91019531 9.39628906 16.19539063 9.43945312 17.51953125 C9.57761356 28.18551697 9.57761356 28.18551697 6.66796875 31.8359375 C2.81661778 34.95987372 0.12060773 35.11906597 -4.6875 35.0625 C-5.68136719 35.05347656 -6.67523437 35.04445313 -7.69921875 35.03515625 C-8.83810547 35.01775391 -8.83810547 35.01775391 -10 35 C-10 33.68 -10 32.36 -10 31 C-9.31292969 30.96261719 -8.62585938 30.92523438 -7.91796875 30.88671875 C-7.01691406 30.82097656 -6.11585938 30.75523437 -5.1875 30.6875 C-4.29417969 30.62949219 -3.40085937 30.57148438 -2.48046875 30.51171875 C0.34108797 29.92963382 1.31513459 29.30560529 3 27 C3.25069913 24.37429296 3.25069913 24.37429296 3 22 C2.01 22.66 1.02 23.32 0 24 C-3.8973724 24.50835292 -5.50556726 24.32962183 -8.8125 22.125 C-12.1818007 18.85196503 -12.20468753 16.78939002 -12.3125 12.1875 C-12.28807725 8.11378565 -12.22391249 6.38065123 -10.125 2.8125 C-6.66688747 -0.13706657 -4.50943867 -0.27608808 0 0 Z " fill="#F2F2F2" transform="translate(834,240)"/>
<path d="M0 0 C3.72021378 1.69100626 5.82651656 3.5688267 8 7 C8.80407057 11.0605564 8.93064111 15.22072831 6.98046875 18.94921875 C3.89279131 22.80181931 1.45805053 23.83799439 -3.375 24.375 C-7 24 -7 24 -9.875 21.625 C-13.67706134 16.92833599 -13.52891992 12.89235351 -13 7 C-10.23346802 0.67649832 -6.70556965 -0.57806635 0 0 Z " fill="#F1F1F1" transform="translate(1321,240)"/>
<path d="M0 0 C2.69105198 2.17574416 4.45532928 3.91065856 6 7 C6.59266465 12.6986986 6.22769466 17.09868589 3 22 C-0.69609672 24.46406448 -3.71027391 24.67864807 -8 24 C-11.06247955 22.20245766 -12.56734966 20.76228869 -14.3125 17.6875 C-15.46441003 13.18457899 -15.69630992 9.53188183 -13.75 5.25 C-9.96429155 0.38266057 -6.26273342 -1.36686642 0 0 Z " fill="#F2F2F2" transform="translate(1161,240)"/>
<path d="M0 0 C4.14613048 1.79037453 6.20962547 3.85386952 8 8 C8.56796579 13.20635305 7.88868756 16.6171637 5 21 C2.10147418 23.41543818 0.24863178 23.96448117 -3.5 24.5 C-7.92240791 23.86822744 -9.26890096 22.45403702 -12 19 C-13.70929814 13.87210557 -13.61738099 9.58755111 -11.6875 4.625 C-8.51958499 -0.30286779 -5.54890668 -0.47835402 0 0 Z " fill="#F2F2F2" transform="translate(1402,240)"/>
<path d="M0 0 C3.5386994 1.65139305 4.81070153 2.71605229 7 6 C7.58190144 10.88192638 7.61701919 15.48830299 5.75 20.0625 C2.80732807 23.32045821 0.94261145 23.89716966 -3.4375 24.375 C-7.58155564 23.93878362 -9.09130272 22.90869728 -12 20 C-14.08540153 15.82919693 -13.45427114 10.54271136 -13 6 C-9.56302174 0.15713696 -6.58641306 -0.44653648 0 0 Z " fill="#F0F0F0" transform="translate(513,240)"/>
<path d="M0 0 C2.31 0 4.62 0 7 0 C8.3189103 4.20635138 9.62899071 8.41540259 10.9375 12.625 C11.49727539 14.40970703 11.49727539 14.40970703 12.06835938 16.23046875 C12.42607422 17.38417969 12.78378906 18.53789062 13.15234375 19.7265625 C13.48226318 20.78439941 13.81218262 21.84223633 14.15209961 22.93212891 C14.98492424 25.94545292 15.54428296 28.90922579 16 32 C14.35 32 12.7 32 11 32 C10.34 29.69 9.68 27.38 9 25 C5.37 25 1.74 25 -2 25 C-2.66 27.31 -3.32 29.62 -4 32 C-5.65 32 -7.3 32 -9 32 C-6.42486227 21.18154427 -3.43213257 10.57772005 0 0 Z " fill="#F1F1F1" transform="translate(210,232)"/>
<path d="M0 0 C9.9540412 -0.62757528 9.9540412 -0.62757528 14.125 1.875 C17.43981747 5.63179313 17.10747502 8.17774799 17.0625 13.125 C17.05347656 14.40632812 17.04445313 15.68765625 17.03515625 17.0078125 C17.02355469 17.99523437 17.01195312 18.98265625 17 20 C18.32 20 19.64 20 21 20 C21 21.32 21 22.64 21 24 C18.36 24 15.72 24 13 24 C12.67 23.01 12.34 22.02 12 21 C11.484375 21.495 10.96875 21.99 10.4375 22.5 C7.0761612 24.56851618 4.88040089 24.48505011 1 24 C-2.10639164 21.92907224 -2.84874457 20.71090051 -3.625 17.0625 C-2.9193914 13.60501786 -1.75881216 12.02295133 1.06640625 9.90234375 C4.59492184 8.25570314 8.2021164 8.62021164 12 9 C11.67 8.01 11.34 7.02 11 6 C8.70370006 4.85185003 6.92301914 4.69230191 4.375 4.4375 C3.55773438 4.35371094 2.74046875 4.26992187 1.8984375 4.18359375 C1.27195312 4.12300781 0.64546875 4.06242188 0 4 C0 2.68 0 1.36 0 0 Z " fill="#F1F1F1" transform="translate(1229,240)"/>
<path d="M0 0 C1.32 0 2.64 0 4 0 C4.33 0.66 4.66 1.32 5 2 C5.66 1.34 6.32 0.68 7 0 C9.33944736 0.28730055 11.6739143 0.61936779 14 1 C14.33 0.67 14.66 0.34 15 0 C17.4375 -0.1875 17.4375 -0.1875 20 0 C22 2 22 2 22.22705078 4.24658203 C22.21657715 5.15778809 22.20610352 6.06899414 22.1953125 7.0078125 C22.18886719 7.99394531 22.18242188 8.98007813 22.17578125 9.99609375 C22.15902344 11.02863281 22.14226562 12.06117188 22.125 13.125 C22.11597656 14.16527344 22.10695313 15.20554688 22.09765625 16.27734375 C22.07403747 18.85179092 22.04110149 21.42578212 22 24 C20.35 24 18.7 24 17 24 C17 17.4 17 10.8 17 4 C16.01 4.33 15.02 4.66 14 5 C13.67 11.27 13.34 17.54 13 24 C11.68 24 10.36 24 9 24 C9 17.4 9 10.8 9 4 C7.68 4 6.36 4 5 4 C5 10.6 5 17.2 5 24 C3.35 24 1.7 24 0 24 C0 16.08 0 8.16 0 0 Z " fill="#F5F5F5" transform="translate(1011,240)"/>
<path d="M0 0 C2.475 0.495 2.475 0.495 5 1 C5.33 0.67 5.66 0.34 6 0 C8.4375 -0.1875 8.4375 -0.1875 11 0 C11.66 0.66 12.32 1.32 13 2 C13.66 1.34 14.32 0.68 15 0 C18.0625 0.25 18.0625 0.25 21 1 C22.2263757 3.45275141 22.11415314 5.0505781 22.09765625 7.7890625 C22.09443359 8.73007813 22.09121094 9.67109375 22.08789062 10.640625 C22.07951172 11.62546875 22.07113281 12.6103125 22.0625 13.625 C22.05798828 14.61757812 22.05347656 15.61015625 22.04882812 16.6328125 C22.03702145 19.0886016 22.020554 21.54427104 22 24 C20.35 24 18.7 24 17 24 C17 17.4 17 10.8 17 4 C15.68 4 14.36 4 13 4 C13 10.6 13 17.2 13 24 C11.68 24 10.36 24 9 24 C9 17.4 9 10.8 9 4 C7.68 4 6.36 4 5 4 C5 10.6 5 17.2 5 24 C3.35 24 1.7 24 0 24 C0 16.08 0 8.16 0 0 Z " fill="#EEEEEE" transform="translate(1200,240)"/>
<path d="M0 0 C2.75569447 2.18159145 4.43588747 3.87177494 6 7 C6 9.31 6 11.62 6 14 C0.72 14 -4.56 14 -10 14 C-8.5 18 -8.5 18 -6 19 C-4.29636178 19.22622081 -2.58671299 19.40888473 -0.875 19.5625 C0.03507813 19.64628906 0.94515625 19.73007812 1.8828125 19.81640625 C2.58148437 19.87699219 3.28015625 19.93757813 4 20 C4 21.32 4 22.64 4 24 C-7.82071747 24.86073185 -7.82071747 24.86073185 -11.6875 21.6875 C-15.1706165 17.63955379 -15.28086949 14.33710501 -15.22265625 9.22265625 C-14.91796456 6.18108486 -13.92293013 4.35024793 -12 2 C-7.99745384 -0.66836411 -4.70686701 -0.8340238 0 0 Z " fill="#EDEDED" transform="translate(730,240)"/>
<path d="M0 0 C3.5386994 1.65139305 4.81070153 2.71605229 7 6 C7 8.64 7 11.28 7 14 C1.72 14 -3.56 14 -9 14 C-5.7508523 19.06567155 -5.7508523 19.06567155 -2.421875 19.70703125 C-1.54015625 19.74183594 -0.6584375 19.77664063 0.25 19.8125 C1.14203125 19.86019531 2.0340625 19.90789062 2.953125 19.95703125 C3.62859375 19.97121094 4.3040625 19.98539062 5 20 C5.33 21.32 5.66 22.64 6 24 C-4.6653883 24.62128476 -4.6653883 24.62128476 -9.625 22.3125 C-13.18564719 18.84555405 -13.84204305 16.44793871 -14.375 11.5625 C-13.92715888 7.30800938 -12.6792268 5.2916215 -10 2 C-6.27420911 -0.48386059 -4.41288598 -0.3804212 0 0 Z " fill="#EFEFEF" transform="translate(998,240)"/>
<path d="M0 0 C2.8100346 1.79363911 4.50940468 3.01880935 6 6 C6 8.64 6 11.28 6 14 C0.72 14 -4.56 14 -10 14 C-9.67 15.32 -9.34 16.64 -9 18 C-4.71 18.66 -0.42 19.32 4 20 C4 21.32 4 22.64 4 24 C-5.68965517 24.62068966 -5.68965517 24.62068966 -10.5625 22.3125 C-14.3795621 18.69118468 -14.86154046 16.24613589 -15.4375 11.0625 C-15.3385063 6.31080264 -13.32811973 4.24887878 -10 1 C-6.79826746 -0.60086627 -3.47422941 -0.49917089 0 0 Z " fill="#EFEFEF" transform="translate(622,240)"/>
<path d="M0 0 C1.65 0 3.3 0 5 0 C5.32613281 0.79664063 5.65226563 1.59328125 5.98828125 2.4140625 C6.64376953 4.00347656 6.64376953 4.00347656 7.3125 5.625 C7.74175781 6.66914063 8.17101562 7.71328125 8.61328125 8.7890625 C9.96159855 11.9110817 11.47914738 14.95829476 13 18 C14.65 12.39 16.3 6.78 18 1 C19.65 0.67 21.3 0.34 23 0 C22.35589485 6.15289916 20.68042034 11.75980799 18.75 17.625 C18.46253906 18.553125 18.17507813 19.48125 17.87890625 20.4375 C16.13025645 25.76744568 14.54574818 29.42266241 10 33 C6.31667504 34.57856784 4.04306781 35 0 35 C0 33.35 0 31.7 0 30 C0.62648438 29.81824219 1.25296875 29.63648438 1.8984375 29.44921875 C2.71570313 29.19785156 3.53296875 28.94648438 4.375 28.6875 C5.59316406 28.32205078 5.59316406 28.32205078 6.8359375 27.94921875 C9.33184629 27.08631815 9.33184629 27.08631815 11 24 C10.34 24 9.68 24 9 24 C7.49727541 20.18856823 5.99827687 16.37568213 4.5 12.5625 C4.07074219 11.47388672 3.64148438 10.38527344 3.19921875 9.26367188 C2.79316406 8.22919922 2.38710938 7.19472656 1.96875 6.12890625 C1.59169922 5.17056885 1.21464844 4.21223145 0.82617188 3.22485352 C0 1 0 1 0 0 Z " fill="#EEEEEE" transform="translate(902,240)"/>
<path d="M0 0 C1.65 0 3.3 0 5 0 C7.31 5.94 9.62 11.88 12 18 C14.5228423 11.2865239 14.5228423 11.2865239 16.6875 4.5 C16.93886719 3.6440625 17.19023437 2.788125 17.44921875 1.90625 C17.63097656 1.2771875 17.81273437 0.648125 18 0 C19.65 0 21.3 0 23 0 C21.85471571 5.83053822 20.34065769 11.50303693 18.625 17.1875 C18.3297644 18.20263672 18.3297644 18.20263672 18.02856445 19.23828125 C16.37360381 24.6035887 14.21506347 29.26386918 9.6875 32.8125 C6.46530655 34.2362599 3.4922606 34.65762151 0 35 C0 33.35 0 31.7 0 30 C0.62648438 29.81824219 1.25296875 29.63648438 1.8984375 29.44921875 C2.71570313 29.19785156 3.53296875 28.94648438 4.375 28.6875 C5.59316406 28.32205078 5.59316406 28.32205078 6.8359375 27.94921875 C9.33184629 27.08631815 9.33184629 27.08631815 11 24 C10.34 24 9.68 24 9 24 C7.4943349 20.37732706 5.99643454 16.75149451 4.5 13.125 C4.07074219 12.09246094 3.64148438 11.05992187 3.19921875 9.99609375 C2.79316406 9.00996094 2.38710938 8.02382812 1.96875 7.0078125 C1.59169922 6.09660645 1.21464844 5.18540039 0.82617188 4.24658203 C0 2 0 2 0 0 Z " fill="#F0F0F0" transform="translate(417,240)"/>
<path d="M0 0 C1.65 0 3.3 0 5 0 C5.06058594 1.28777344 5.12117188 2.57554687 5.18359375 3.90234375 C5.26798247 5.58074159 5.3526313 7.25912636 5.4375 8.9375 C5.47681641 9.78763672 5.51613281 10.63777344 5.55664062 11.51367188 C5.59853516 12.32255859 5.64042969 13.13144531 5.68359375 13.96484375 C5.72025146 14.7137085 5.75690918 15.46257324 5.79467773 16.23413086 C5.81771063 18.02461326 5.81771063 18.02461326 7 19 C8.66617115 19.04063832 10.33388095 19.042721 12 19 C13.94456928 14.86581409 14.37028021 11.230003 14.625 6.6875 C14.69976562 5.43324219 14.77453125 4.17898437 14.8515625 2.88671875 C14.90054687 1.93410156 14.94953125 0.98148438 15 0 C16.65 0 18.3 0 20 0 C20 6.6 20 13.2 20 20 C20.99 20 21.98 20 23 20 C23 21.32 23 22.64 23 24 C20.36 24 17.72 24 15 24 C14.67 23.01 14.34 22.02 14 21 C13.62875 21.495 13.2575 21.99 12.875 22.5 C11 24 11 24 8.0625 24.375 C4.69980055 23.96324088 3.37263356 23.37263356 1 21 C0.07811539 18.23434618 -0.11785222 16.61716298 -0.09765625 13.76953125 C-0.09282227 12.56586914 -0.09282227 12.56586914 -0.08789062 11.33789062 C-0.07951172 10.50451172 -0.07113281 9.67113281 -0.0625 8.8125 C-0.05798828 7.96751953 -0.05347656 7.12253906 -0.04882812 6.25195312 C-0.03705403 4.16793845 -0.0191189 2.08396023 0 0 Z " fill="#EFEFEF" transform="translate(257,240)"/>
<path d="M0 0 C1.65 0 3.3 0 5 0 C5.33 5.94 5.66 11.88 6 18 C10.47702364 19.06537205 10.47702364 19.06537205 13 19 C13.33 12.73 13.66 6.46 14 0 C15.65 0 17.3 0 19 0 C19 6.6 19 13.2 19 20 C19.99 20 20.98 20 22 20 C22 21.32 22 22.64 22 24 C19.36 24 16.72 24 14 24 C13.67 23.34 13.34 22.68 13 22 C12.01 22.66 11.02 23.32 10 24 C7.0625 24.4375 7.0625 24.4375 4 24 C1.53584191 21.83224872 0.16082422 20.10824304 -0.31811523 16.80786133 C-0.39355474 14.25638052 -0.34890369 11.73807394 -0.25 9.1875 C-0.23195313 8.30384766 -0.21390625 7.42019531 -0.1953125 6.50976562 C-0.14838513 4.33937457 -0.07664731 2.16954481 0 0 Z " fill="#E9E9E9" transform="translate(1551,240)"/>
<path d="M0 0 C1.65 0 3.3 0 5 0 C5.33 0.66 5.66 1.32 6 2 C6.66 1.34 7.32 0.68 8 0 C10.05859375 -0.1171875 10.05859375 -0.1171875 12.4375 0.125 C13.21996094 0.18945312 14.00242187 0.25390625 14.80859375 0.3203125 C17 1 17 1 18.7734375 2.4453125 C20.69786853 6.45352235 20.31364977 10.37033892 20.1875 14.75 C20.16719727 16.08224609 20.16719727 16.08224609 20.14648438 17.44140625 C20.11121309 19.62822578 20.06192752 21.81379966 20 24 C18.35 24 16.7 24 15 24 C14.93941406 22.71222656 14.87882812 21.42445313 14.81640625 20.09765625 C14.73201753 18.41925841 14.6473687 16.74087364 14.5625 15.0625 C14.52318359 14.21236328 14.48386719 13.36222656 14.44335938 12.48632812 C14.38051758 11.27299805 14.38051758 11.27299805 14.31640625 10.03515625 C14.27974854 9.2862915 14.24309082 8.53742676 14.20532227 7.76586914 C14.18228937 5.97538674 14.18228937 5.97538674 13 5 C10.54190002 4.7499227 10.54190002 4.7499227 8 5 C4.97906785 8.02093215 5.53323166 11.56372072 5.375 15.625 C5.33632812 16.42679687 5.29765625 17.22859375 5.2578125 18.0546875 C5.16346069 20.03607556 5.08063785 22.01800645 5 24 C3.35 24 1.7 24 0 24 C0 16.08 0 8.16 0 0 Z " fill="#EFEFEF" transform="translate(1524,240)"/>
<path d="M0 0 C0.91007812 0.00902344 1.82015625 0.01804688 2.7578125 0.02734375 C3.80582031 0.04474609 3.80582031 0.04474609 4.875 0.0625 C4.875 1.3825 4.875 2.7025 4.875 4.0625 C3.59625 4.18625 2.3175 4.31 1 4.4375 C-2.47290936 4.75292399 -2.47290936 4.75292399 -5.125 7.0625 C-5.58311675 9.03485333 -5.58311675 9.03485333 -5.75 11.1875 C-5.87375 12.46625 -5.9975 13.745 -6.125 15.0625 C-2.825 15.0625 0.475 15.0625 3.875 15.0625 C3.875 16.3825 3.875 17.7025 3.875 19.0625 C0.575 19.0625 -2.725 19.0625 -6.125 19.0625 C-6.125 23.6825 -6.125 28.3025 -6.125 33.0625 C-7.775 33.0625 -9.425 33.0625 -11.125 33.0625 C-11.125 28.4425 -11.125 23.8225 -11.125 19.0625 C-13.435 19.0625 -15.745 19.0625 -18.125 19.0625 C-18.125 17.7425 -18.125 16.4225 -18.125 15.0625 C-15.815 15.0625 -13.505 15.0625 -11.125 15.0625 C-11.24875 13.268125 -11.24875 13.268125 -11.375 11.4375 C-11.39083495 6.97996125 -9.9909892 4.5185458 -7.125 1.0625 C-4.60024538 -0.19987731 -2.81299534 -0.03606404 0 0 Z " fill="#F5F5F5" transform="translate(1136.125,230.9375)"/>
<path d="M0 0 C1.32 0 2.64 0 4 0 C4.33 0.99 4.66 1.98 5 3 C5.37125 2.505 5.7425 2.01 6.125 1.5 C8 0 8 0 10.875 -0.4375 C14.92721926 0.1298107 16.2699007 0.93035893 19 4 C19.62391349 7.43342636 19.47067875 10.77493445 19.3125 14.25 C19.28994141 15.18585938 19.26738281 16.12171875 19.24414062 17.0859375 C19.18530595 19.39225674 19.10317146 21.69530838 19 24 C17.35 24 15.7 24 14 24 C13.67 18.06 13.34 12.12 13 6 C8.39467611 4.54685336 8.39467611 4.54685336 6 6 C5.67 11.94 5.34 17.88 5 24 C3.35 24 1.7 24 0 24 C0 16.08 0 8.16 0 0 Z " fill="#EFEFEF" transform="translate(1336,240)"/>
<path d="M0 0 C1.32 0 2.64 0 4 0 C4.33 0.99 4.66 1.98 5 3 C5.37125 2.505 5.7425 2.01 6.125 1.5 C8 0 8 0 10.875 -0.4375 C14.92721926 0.1298107 16.2699007 0.93035893 19 4 C19.62391349 7.43342636 19.47067875 10.77493445 19.3125 14.25 C19.28994141 15.18585938 19.26738281 16.12171875 19.24414062 17.0859375 C19.18530595 19.39225674 19.10317146 21.69530838 19 24 C17.35 24 15.7 24 14 24 C13.67 18.06 13.34 12.12 13 6 C8.39467611 4.54685336 8.39467611 4.54685336 6 6 C5.67 11.94 5.34 17.88 5 24 C3.35 24 1.7 24 0 24 C0 16.08 0 8.16 0 0 Z " fill="#EFEFEF" transform="translate(797,240)"/>
<path d="M0 0 C1.65 0 3.3 0 5 0 C5 2.31 5 4.62 5 7 C8.63 7 12.26 7 16 7 C16 8.32 16 9.64 16 11 C12.37 11 8.74 11 5 11 C5.33 15.95 5.66 20.9 6 26 C9.63 26.33 13.26 26.66 17 27 C17 28.32 17 29.64 17 31 C15.08458862 31.10841951 13.16740227 31.18578079 11.25 31.25 C9.64898437 31.31960938 9.64898437 31.31960938 8.015625 31.390625 C4.32566594 30.91265103 3.27373274 29.86872822 1 27 C-0.50156874 23.99686252 -0.09281204 21.20932478 -0.0625 17.875 C-0.05347656 16.59367187 -0.04445313 15.31234375 -0.03515625 13.9921875 C-0.02355469 13.00476563 -0.01195312 12.01734375 0 11 C-1.98 11 -3.96 11 -6 11 C-6 9.68 -6 8.36 -6 7 C-4.02 7 -2.04 7 0 7 C0 4.69 0 2.38 0 0 Z " fill="#F2F2F2" transform="translate(396,233)"/>
<path d="M0 0 C1.65 0 3.3 0 5 0 C5 2.31 5 4.62 5 7 C8.63 7 12.26 7 16 7 C16 8.32 16 9.64 16 11 C12.37 11 8.74 11 5 11 C5.33 15.95 5.66 20.9 6 26 C9.63 26.33 13.26 26.66 17 27 C17 28.32 17 29.64 17 31 C15.08458862 31.10841951 13.16740227 31.18578079 11.25 31.25 C9.64898437 31.31960938 9.64898437 31.31960938 8.015625 31.390625 C4.32566594 30.91265103 3.27373274 29.86872822 1 27 C-0.50156874 23.99686252 -0.09281204 21.20932478 -0.0625 17.875 C-0.05347656 16.59367187 -0.04445313 15.31234375 -0.03515625 13.9921875 C-0.02355469 13.00476563 -0.01195312 12.01734375 0 11 C-1.98 11 -3.96 11 -6 11 C-6 9.68 -6 8.36 -6 7 C-4.02 7 -2.04 7 0 7 C0 4.69 0 2.38 0 0 Z " fill="#F2F2F2" transform="translate(288,233)"/>
<path d="M0 0 C1.65 0 3.3 0 5 0 C5 2.31 5 4.62 5 7 C8.63 7 12.26 7 16 7 C16 8.32 16 9.64 16 11 C12.37 11 8.74 11 5 11 C5.14026283 13.31284456 5.28735558 15.62527591 5.4375 17.9375 C5.51871094 19.22527344 5.59992187 20.51304687 5.68359375 21.83984375 C5.64919188 24.86023957 5.64919188 24.86023957 7 26 C8.51469448 26.23192865 10.03754562 26.41215238 11.5625 26.5625 C12.38878906 26.64628906 13.21507812 26.73007812 14.06640625 26.81640625 C15.02353516 26.90728516 15.02353516 26.90728516 16 27 C16 28.32 16 29.64 16 31 C14.2507786 31.08142927 12.50045458 31.13938541 10.75 31.1875 C9.77546875 31.22230469 8.8009375 31.25710938 7.796875 31.29296875 C4.57223082 30.95519178 3.29209203 30.25529239 1 28 C-0.18681726 24.43954823 -0.09689832 21.56191663 -0.0625 17.8125 C-0.05347656 16.54019531 -0.04445313 15.26789063 -0.03515625 13.95703125 C-0.02355469 12.98121094 -0.01195312 12.00539062 0 11 C-1.98 11 -3.96 11 -6 11 C-6 9.68 -6 8.36 -6 7 C-4.02 7 -2.04 7 0 7 C0 4.69 0 2.38 0 0 Z " fill="#F6F6F6" transform="translate(962,233)"/>
<path d="M0 0 C1.65 0 3.3 0 5 0 C5 2.31 5 4.62 5 7 C8.3 7 11.6 7 15 7 C15 8.32 15 9.64 15 11 C11.7 11 8.4 11 5 11 C5.14026283 13.31284456 5.28735558 15.62527591 5.4375 17.9375 C5.51871094 19.22527344 5.59992187 20.51304687 5.68359375 21.83984375 C5.64919188 24.86023957 5.64919188 24.86023957 7 26 C8.51469448 26.23192865 10.03754562 26.41215238 11.5625 26.5625 C12.38878906 26.64628906 13.21507812 26.73007812 14.06640625 26.81640625 C15.02353516 26.90728516 15.02353516 26.90728516 16 27 C16 28.32 16 29.64 16 31 C14.27305325 31.13609913 12.54295278 31.23249228 10.8125 31.3125 C9.84957031 31.37050781 8.88664063 31.42851562 7.89453125 31.48828125 C3.78551006 30.79512653 2.42832362 29.34334411 0 26 C-0.36771245 23.1612599 -0.48630804 20.98179849 -0.3125 18.1875 C-0.27866211 17.14819336 -0.27866211 17.14819336 -0.24414062 16.08789062 C-0.18562661 14.39098427 -0.0959548 12.69520139 0 11 C-1.98 11 -3.96 11 -6 11 C-6 9.68 -6 8.36 -6 7 C-4.02 7 -2.04 7 0 7 C0 4.69 0 2.38 0 0 Z " fill="#F4F4F4" transform="translate(639,233)"/>
<path d="M0 0 C1.65 0 3.3 0 5 0 C5.33 0.66 5.66 1.32 6 2 C6.66 1.34 7.32 0.68 8 0 C11.90224001 -0.33932522 14.70171308 -0.19885794 18 2 C19.20029908 4.40059817 19.11459743 5.89360649 19.09765625 8.5703125 C19.09443359 9.46621094 19.09121094 10.36210937 19.08789062 11.28515625 C19.07951172 12.22230469 19.07113281 13.15945312 19.0625 14.125 C19.05798828 15.06988281 19.05347656 16.01476562 19.04882812 16.98828125 C19.03702357 19.32558387 19.02055759 21.66276061 19 24 C17.68 24 16.36 24 15 24 C14.67 17.73 14.34 11.46 14 5 C12.02 5 10.04 5 8 5 C4.97906785 8.02093215 5.53323166 11.56372072 5.375 15.625 C5.33632812 16.42679687 5.29765625 17.22859375 5.2578125 18.0546875 C5.16346069 20.03607556 5.08063785 22.01800645 5 24 C3.35 24 1.7 24 0 24 C0 16.08 0 8.16 0 0 Z " fill="#F5F5F5" transform="translate(1093,240)"/>
<path d="M0 0 C1.27875 -0.061875 2.5575 -0.12375 3.875 -0.1875 C4.95394531 -0.23970703 4.95394531 -0.23970703 6.0546875 -0.29296875 C6.69664063 -0.19628906 7.33859375 -0.09960938 8 0 C8.66 0.99 9.32 1.98 10 3 C10.37125 2.505 10.7425 2.01 11.125 1.5 C13 0 13 0 15.9375 -0.4375 C19 0 19 0 21.375 1.6875 C23.27258004 4.38790237 23.35882213 5.77060081 23 9 C21.35 9 19.7 9 18 9 C17.67 7.68 17.34 6.36 17 5 C15.02 5 13.04 5 11 5 C10.34 9.95 9.68 14.9 9 20 C10.98 20 12.96 20 15 20 C15 21.32 15 22.64 15 24 C9.72 24 4.44 24 -1 24 C-1 22.68 -1 21.36 -1 20 C0.65 20 2.3 20 4 20 C4 14.72 4 9.44 4 4 C2.68 4 1.36 4 0 4 C0 2.68 0 1.36 0 0 Z " fill="#F6F6F6" transform="translate(1173,240)"/>
<path d="M0 0 C1.27875 -0.061875 2.5575 -0.12375 3.875 -0.1875 C4.95394531 -0.23970703 4.95394531 -0.23970703 6.0546875 -0.29296875 C6.69664062 -0.19628906 7.33859375 -0.09960938 8 0 C8.66 0.99 9.32 1.98 10 3 C10.37125 2.505 10.7425 2.01 11.125 1.5 C13 0 13 0 15.9375 -0.4375 C19 0 19 0 21.375 1.6875 C23.27258004 4.38790237 23.35882213 5.77060081 23 9 C21.35 9 19.7 9 18 9 C17.67 7.68 17.34 6.36 17 5 C15.02 5 13.04 5 11 5 C10.34 9.95 9.68 14.9 9 20 C10.98 20 12.96 20 15 20 C15 21.32 15 22.64 15 24 C9.72 24 4.44 24 -1 24 C-1 22.68 -1 21.36 -1 20 C0.65 20 2.3 20 4 20 C4 14.72 4 9.44 4 4 C2.68 4 1.36 4 0 4 C0 2.68 0 1.36 0 0 Z " fill="#F6F6F6" transform="translate(661,240)"/>
<path d="M0 0 C1.27875 -0.061875 2.5575 -0.12375 3.875 -0.1875 C4.95394531 -0.23970703 4.95394531 -0.23970703 6.0546875 -0.29296875 C6.69664062 -0.19628906 7.33859375 -0.09960938 8 0 C8.66 0.99 9.32 1.98 10 3 C10.37125 2.505 10.7425 2.01 11.125 1.5 C13 0 13 0 15.9375 -0.4375 C19 0 19 0 21.375 1.6875 C23.27258004 4.38790237 23.35882213 5.77060081 23 9 C21.35 9 19.7 9 18 9 C17.67 7.68 17.34 6.36 17 5 C15.02 5 13.04 5 11 5 C10.34 9.95 9.68 14.9 9 20 C10.98 20 12.96 20 15 20 C15 21.32 15 22.64 15 24 C9.72 24 4.44 24 -1 24 C-1 22.68 -1 21.36 -1 20 C0.65 20 2.3 20 4 20 C4 14.72 4 9.44 4 4 C2.68 4 1.36 4 0 4 C0 2.68 0 1.36 0 0 Z " fill="#F6F6F6" transform="translate(580,240)"/>
<path d="M0 0 C1.32 0 2.64 0 4 0 C4.33 0.66 4.66 1.32 5 2 C5.66 1.34 6.32 0.68 7 0 C12.63994911 -0.63676845 12.63994911 -0.63676845 15 0 C17.52870579 2.15865128 18.83577842 3.85338604 19.31396484 7.19213867 C19.39373766 9.74410651 19.34892696 12.26132577 19.25 14.8125 C19.23195313 15.69615234 19.21390625 16.57980469 19.1953125 17.49023438 C19.14838513 19.66062543 19.07664731 21.83045519 19 24 C17.35 24 15.7 24 14 24 C13.93941406 22.71222656 13.87882812 21.42445313 13.81640625 20.09765625 C13.73201753 18.41925841 13.6473687 16.74087364 13.5625 15.0625 C13.52318359 14.21236328 13.48386719 13.36222656 13.44335938 12.48632812 C13.38051758 11.27299805 13.38051758 11.27299805 13.31640625 10.03515625 C13.27974854 9.2862915 13.24309082 8.53742676 13.20532227 7.76586914 C13.18228937 5.97538674 13.18228937 5.97538674 12 5 C10.33382885 4.95936168 8.66611905 4.957279 7 5 C5.05543072 9.13418591 4.62971979 12.769997 4.375 17.3125 C4.26285156 19.19388672 4.26285156 19.19388672 4.1484375 21.11328125 C4.09945313 22.06589844 4.05046875 23.01851563 4 24 C2.68 24 1.36 24 0 24 C0 16.08 0 8.16 0 0 Z " fill="#F1F1F1" transform="translate(1417,240)"/>
<path d="M0 0 C0 1.32 0 2.64 0 4 C-0.62648438 4.03738281 -1.25296875 4.07476562 -1.8984375 4.11328125 C-3.12433594 4.21189453 -3.12433594 4.21189453 -4.375 4.3125 C-5.18710937 4.37050781 -5.99921875 4.42851562 -6.8359375 4.48828125 C-9.37921338 4.82990528 -9.37921338 4.82990528 -11 8 C-11.39387788 10.32387947 -11.73486085 12.65793749 -12 15 C-8.7 15 -5.4 15 -2 15 C-2 16.32 -2 17.64 -2 19 C-5.3 19 -8.6 19 -12 19 C-12 23.62 -12 28.24 -12 33 C-13.32 33 -14.64 33 -16 33 C-16 28.38 -16 23.76 -16 19 C-18.64 19 -21.28 19 -24 19 C-24 17.68 -24 16.36 -24 15 C-21.36 15 -18.72 15 -16 15 C-16.05800781 14.33613281 -16.11601562 13.67226562 -16.17578125 12.98828125 C-16.40275892 8.546004 -16.45756302 5.78890177 -14.1875 1.875 C-9.52877663 -0.86542551 -5.27778232 -0.41593731 0 0 Z " fill="#F9F9F9" transform="translate(495,231)"/>
<path d="M0 0 C1.74216797 0.05414063 1.74216797 0.05414063 3.51953125 0.109375 C4.39996094 0.15578125 5.28039062 0.2021875 6.1875 0.25 C6.1875 1.57 6.1875 2.89 6.1875 4.25 C-0.2475 4.745 -0.2475 4.745 -6.8125 5.25 C-6.8125 6.57 -6.8125 7.89 -6.8125 9.25 C-5.79929687 9.41435547 -5.79929687 9.41435547 -4.765625 9.58203125 C-3.87359375 9.74058594 -2.9815625 9.89914063 -2.0625 10.0625 C-0.73992188 10.28873047 -0.73992188 10.28873047 0.609375 10.51953125 C3.4325394 11.31942783 5.06469054 12.23455102 7.1875 14.25 C7.66100184 17.49686974 7.83326592 19.35822802 5.875 22.0625 C2.36855594 24.52999767 -0.86182669 24.35699649 -5 24.3125 C-6.63001953 24.29896484 -6.63001953 24.29896484 -8.29296875 24.28515625 C-9.12441406 24.27355469 -9.95585938 24.26195312 -10.8125 24.25 C-11.1425 22.6 -11.4725 20.95 -11.8125 19.25 C-7.1925 19.25 -2.5725 19.25 2.1875 19.25 C2.1875 17.93 2.1875 16.61 2.1875 15.25 C1.17429687 15.08564453 1.17429687 15.08564453 0.140625 14.91796875 C-0.75140625 14.75941406 -1.6434375 14.60085937 -2.5625 14.4375 C-3.88507812 14.21126953 -3.88507812 14.21126953 -5.234375 13.98046875 C-8.05636577 13.1809047 -9.68422068 12.25652421 -11.8125 10.25 C-12.375 7.3125 -12.375 7.3125 -11.8125 4.25 C-8.00058712 0.31808246 -5.38471372 -0.21756419 0 0 Z " fill="#F5F5F5" transform="translate(943.8125,239.75)"/>
<path d="M0 0 C1.74216797 0.05414063 1.74216797 0.05414063 3.51953125 0.109375 C4.39996094 0.15578125 5.28039062 0.2021875 6.1875 0.25 C6.1875 1.57 6.1875 2.89 6.1875 4.25 C-0.2475 4.745 -0.2475 4.745 -6.8125 5.25 C-6.8125 6.57 -6.8125 7.89 -6.8125 9.25 C-5.79929687 9.41435547 -5.79929687 9.41435547 -4.765625 9.58203125 C-3.87359375 9.74058594 -2.9815625 9.89914063 -2.0625 10.0625 C-0.73992188 10.28873047 -0.73992188 10.28873047 0.609375 10.51953125 C3.4325394 11.31942783 5.06469054 12.23455102 7.1875 14.25 C7.66100184 17.49686974 7.83326592 19.35822802 5.875 22.0625 C2.36855594 24.52999767 -0.86182669 24.35699649 -5 24.3125 C-6.63001953 24.29896484 -6.63001953 24.29896484 -8.29296875 24.28515625 C-9.12441406 24.27355469 -9.95585938 24.26195312 -10.8125 24.25 C-11.1425 22.6 -11.4725 20.95 -11.8125 19.25 C-7.1925 19.25 -2.5725 19.25 2.1875 19.25 C2.1875 17.93 2.1875 16.61 2.1875 15.25 C1.17429687 15.08564453 1.17429687 15.08564453 0.140625 14.91796875 C-0.75140625 14.75941406 -1.6434375 14.60085937 -2.5625 14.4375 C-3.88507812 14.21126953 -3.88507812 14.21126953 -5.234375 13.98046875 C-8.05636577 13.1809047 -9.68422068 12.25652421 -11.8125 10.25 C-12.375 7.3125 -12.375 7.3125 -11.8125 4.25 C-8.00058712 0.31808246 -5.38471372 -0.21756419 0 0 Z " fill="#F5F5F5" transform="translate(889.8125,239.75)"/>
<path d="M0 0 C2.97 0 5.94 0 9 0 C9.33 0.99 9.66 1.98 10 3 C10.37125 2.505 10.7425 2.01 11.125 1.5 C13 0 13 0 15.9375 -0.375 C19.34982295 0.04283546 20.74827097 0.40185112 23 3 C23.25 6.1875 23.25 6.1875 23 9 C21.68 9 20.36 9 19 9 C18.34 7.68 17.68 6.36 17 5 C15.35 5.33 13.7 5.66 12 6 C10.23384882 10.70973649 9.51405169 15.03083364 9 20 C10.98 20 12.96 20 15 20 C15 21.32 15 22.64 15 24 C9.72 24 4.44 24 -1 24 C-1 22.68 -1 21.36 -1 20 C0.98 20 2.96 20 5 20 C5 14.72 5 9.44 5 4 C3.35 4 1.7 4 0 4 C0 2.68 0 1.36 0 0 Z " fill="#FBFBFB" transform="translate(526,240)"/>
<path d="M0 0 C1.32 0 2.64 0 4 0 C4 2.31 4 4.62 4 7 C7.63 7 11.26 7 15 7 C15 8.32 15 9.64 15 11 C11.37 11 7.74 11 4 11 C4.11376617 13.12563103 4.24135631 15.2505261 4.375 17.375 C4.44460938 18.55835938 4.51421875 19.74171875 4.5859375 20.9609375 C4.70217346 24.10562319 4.70217346 24.10562319 7 26 C9.20250992 26.46006346 9.20250992 26.46006346 11.625 26.625 C12.44226562 26.69976562 13.25953125 26.77453125 14.1015625 26.8515625 C14.72804688 26.90054687 15.35453125 26.94953125 16 27 C16 28.32 16 29.64 16 31 C6.32592245 31.60992433 6.32592245 31.60992433 1.875 29.5625 C-1.55097795 24.88033013 -1.32369705 19.52718583 -0.5625 13.9375 C-0.2840625 12.4834375 -0.2840625 12.4834375 0 11 C-1.98 11 -3.96 11 -6 11 C-6 9.68 -6 8.36 -6 7 C-4.02 7 -2.04 7 0 7 C0 4.69 0 2.38 0 0 Z " fill="#FAFAFA" transform="translate(1259,233)"/>
<path d="M0 0 C2.75 -0.375 2.75 -0.375 6 0 C10 4.84210526 10 4.84210526 10 8 C10.66 8 11.32 8 12 8 C12.28875 7.236875 12.5775 6.47375 12.875 5.6875 C14 3 14 3 16 0 C19.125 -0.1875 19.125 -0.1875 22 0 C21.20722656 1.10408203 21.20722656 1.10408203 20.3984375 2.23046875 C19.73070312 3.20628906 19.06296875 4.18210938 18.375 5.1875 C17.36566406 6.63189453 17.36566406 6.63189453 16.3359375 8.10546875 C14.6891919 10.88719671 14.6891919 10.88719671 15.625 13.59375 C16.92214765 15.86375839 18.20922161 18.11431777 19.625 20.3125 C20.07101562 21.00988281 20.51703125 21.70726562 20.9765625 22.42578125 C21.31429688 22.94527344 21.65203125 23.46476562 22 24 C19.25 24.375 19.25 24.375 16 24 C12 19.15789474 12 19.15789474 12 16 C11.34 16 10.68 16 10 16 C9.71125 16.763125 9.4225 17.52625 9.125 18.3125 C8 21 8 21 6 24 C2.875 24.1875 2.875 24.1875 0 24 C0.52851562 23.26394531 1.05703125 22.52789062 1.6015625 21.76953125 C2.26929688 20.79371094 2.93703125 19.81789063 3.625 18.8125 C4.29789063 17.84957031 4.97078125 16.88664062 5.6640625 15.89453125 C7.3108081 13.11280329 7.3108081 13.11280329 6.375 10.40625 C5.07785235 8.13624161 3.79077839 5.88568223 2.375 3.6875 C1.92898438 2.99011719 1.48296875 2.29273438 1.0234375 1.57421875 C0.68570312 1.05472656 0.34796875 0.53523437 0 0 Z " fill="#F2F2F2" transform="translate(1577,240)"/>
<path d="M0 0 C3.96 0 7.92 0 12 0 C12.33 8.91 12.66 17.82 13 27 C15.97 27.33 18.94 27.66 22 28 C21.67 29.65 21.34 31.3 21 33 C19.41820385 33.10867302 17.83422847 33.18589827 16.25 33.25 C15.36828125 33.29640625 14.4865625 33.3428125 13.578125 33.390625 C10.12655048 32.86765916 9.15443822 31.70772687 7 29 C6.54589844 26.25097656 6.54589844 26.25097656 6.609375 23.140625 C6.62226563 22.02558594 6.63515625 20.91054687 6.6484375 19.76171875 C6.68195313 18.60285156 6.71546875 17.44398438 6.75 16.25 C6.76804687 15.07566406 6.78609375 13.90132812 6.8046875 12.69140625 C6.8518088 9.7934466 6.91758695 6.89713582 7 4 C4.69 4 2.38 4 0 4 C0 2.68 0 1.36 0 0 Z " fill="#EDEDED" transform="translate(337,231)"/>
<path d="M0 0 C1.65 0 3.3 0 5 0 C5 9.24 5 18.48 5 28 C10.28 28 15.56 28 21 28 C21 29.32 21 30.64 21 32 C14.07 32 7.14 32 0 32 C0 21.44 0 10.88 0 0 Z " fill="#F4F4F4" transform="translate(1470,232)"/>
<path d="M0 0 C1.65 0 3.3 0 5 0 C7.14710968 5.62338249 9.13236819 11.27789404 11 17 C13.1430791 13.78538134 13.98455544 11.07198097 15.0625 7.375 C16.89703588 1.10296412 16.89703588 1.10296412 18 0 C19.65 0 21.3 0 23 0 C20.36 7.92 17.72 15.84 15 24 C12.69 24 10.38 24 8 24 C6.66147204 20.37689672 5.33006282 16.75121856 4 13.125 C3.6184375 12.09246094 3.236875 11.05992187 2.84375 9.99609375 C2.4828125 9.00996094 2.121875 8.02382812 1.75 7.0078125 C1.41484375 6.09660645 1.0796875 5.18540039 0.734375 4.24658203 C0 2 0 2 0 0 Z " fill="#F2F2F2" transform="translate(741,240)"/>
<path d="M0 0 C4.29 0 8.58 0 13 0 C13 6.6 13 13.2 13 20 C15.31 20 17.62 20 20 20 C20 21.32 20 22.64 20 24 C13.07 24 6.14 24 -1 24 C-1 22.68 -1 21.36 -1 20 C1.97 20 4.94 20 8 20 C8 14.72 8 9.44 8 4 C5.36 4 2.72 4 0 4 C0 2.68 0 1.36 0 0 Z " fill="#F8F8F8" transform="translate(1498,240)"/>
<path d="M0 0 C4.29 0 8.58 0 13 0 C13 6.6 13 13.2 13 20 C15.31 20 17.62 20 20 20 C20 21.32 20 22.64 20 24 C13.07 24 6.14 24 -1 24 C-1 22.68 -1 21.36 -1 20 C1.97 20 4.94 20 8 20 C8 14.72 8 9.44 8 4 C5.36 4 2.72 4 0 4 C0 2.68 0 1.36 0 0 Z " fill="#F8F8F8" transform="translate(1067,240)"/>
<path d="M0 0 C3.96 0 7.92 0 12 0 C12 6.6 12 13.2 12 20 C14.64 20 17.28 20 20 20 C20 21.32 20 22.64 20 24 C12.74 24 5.48 24 -2 24 C-2 22.68 -2 21.36 -2 20 C0.97 20 3.94 20 7 20 C7 14.72 7 9.44 7 4 C4.69 4 2.38 4 0 4 C0 2.68 0 1.36 0 0 Z " fill="#F4F4F4" transform="translate(367,240)"/>
<path d="M0 0 C3.96 0 7.92 0 12 0 C12 6.6 12 13.2 12 20 C14.64 20 17.28 20 20 20 C20 21.32 20 22.64 20 24 C12.74 24 5.48 24 -2 24 C-2 22.68 -2 21.36 -2 20 C0.97 20 3.94 20 7 20 C7 14.72 7 9.44 7 4 C4.69 4 2.38 4 0 4 C0 2.68 0 1.36 0 0 Z " fill="#F4F4F4" transform="translate(313,240)"/>
<path d="M0 0 C4.29 0 8.58 0 13 0 C12.67 6.6 12.34 13.2 12 20 C14.64 20 17.28 20 20 20 C20 21.32 20 22.64 20 24 C13.07 24 6.14 24 -1 24 C-1 22.68 -1 21.36 -1 20 C1.97 20 4.94 20 8 20 C8 14.72 8 9.44 8 4 C5.36 4 2.72 4 0 4 C0 2.68 0 1.36 0 0 Z " fill="#FCFCFC" transform="translate(1283,240)"/>
<path d="M0 0 C4.29 0 8.58 0 13 0 C12.67 6.6 12.34 13.2 12 20 C14.64 20 17.28 20 20 20 C20 21.32 20 22.64 20 24 C13.07 24 6.14 24 -1 24 C-1 22.68 -1 21.36 -1 20 C1.97 20 4.94 20 8 20 C8 14.72 8 9.44 8 4 C5.36 4 2.72 4 0 4 C0 2.68 0 1.36 0 0 Z " fill="#FCFCFC" transform="translate(771,240)"/>
<path d="M0 0 C4.29 0 8.58 0 13 0 C12.67 6.6 12.34 13.2 12 20 C14.64 20 17.28 20 20 20 C20 21.32 20 22.64 20 24 C13.07 24 6.14 24 -1 24 C-1 22.68 -1 21.36 -1 20 C1.97 20 4.94 20 8 20 C8 14.72 8 9.44 8 4 C5.36 4 2.72 4 0 4 C0 2.68 0 1.36 0 0 Z " fill="#FCFCFC" transform="translate(690,240)"/>
<path d="M0 0 C2.625 1.625 2.625 1.625 4 4 C4 5.98 4 7.96 4 10 C-2.27 10 -8.54 10 -15 10 C-14 4 -14 4 -12.5625 1.625 C-8.55023965 -0.91936022 -4.61409757 -0.75113216 0 0 Z " fill="#121212" transform="translate(861,156)"/>
<path d="M0 0 C2.99710417 0.44956563 3.68343232 0.99789144 5.5 3.375 C5.8984375 5.75 5.8984375 5.75 5.875 8.375 C5.88273438 9.24125 5.89046875 10.1075 5.8984375 11 C5.42757752 13.80669477 4.76234706 14.6971828 2.5 16.375 C0 16.75 0 16.75 -2.5 16.375 C-4.76234706 14.6971828 -5.42757752 13.80669477 -5.8984375 11 C-5.89070312 10.13375 -5.88296875 9.2675 -5.875 8.375 C-5.88273438 7.50875 -5.89046875 6.6425 -5.8984375 5.75 C-5.26772498 1.99045873 -3.73328232 0.55999235 0 0 Z " fill="#141414" transform="translate(832.5,243.625)"/>
<path d="M0 0 C2.5 0.5 2.5 0.5 4.3125 2.0625 C5.95095998 5.42565469 5.88971822 7.79767686 5.5 11.5 C4.3125 14.4375 4.3125 14.4375 2.5 16.5 C0 17.125 0 17.125 -2.5 16.5 C-5.00553676 13.64887196 -5.47730838 11.71557035 -5.875 7.9375 C-5.38500418 3.44587162 -4.67139185 0.93427837 0 0 Z " fill="#1D1D1D" transform="translate(1318.5,243.5)"/>
<path d="M0 0 C2.375 0.875 2.375 0.875 4.375 2.875 C4.99789998 7.06541802 5.03236022 10.75200963 2.875 14.4375 C2.38 14.911875 1.885 15.38625 1.375 15.875 C-4.1881769 15.39124549 -4.1881769 15.39124549 -6 13.25 C-6.87078333 9.94102336 -6.99012105 7.28279647 -6.625 3.875 C-4.56869278 0.82861894 -3.73077528 -0.17765597 0 0 Z " fill="#1D1D1D" transform="translate(1157.625,244.125)"/>
<path d="M0 0 C2.9375 0.875 2.9375 0.875 4.9375 3.875 C5.51588661 11.82781583 5.51588661 11.82781583 2.9375 14.875 C-0.1875 15.625 -0.1875 15.625 -3.0625 15.875 C-5.8466273 13.20687801 -6.32835934 11.03540925 -6.4375 7.3125 C-6.46537764 4.55725957 -6.39148399 3.31589643 -4.73046875 1.08984375 C-3.0625 -0.125 -3.0625 -0.125 0 0 Z " fill="#1C1C1C" transform="translate(1400.0625,244.125)"/>
<path d="M0 0 C2.4375 0.8125 2.4375 0.8125 4.4375 2.8125 C4.73828125 5.08984375 4.73828125 5.08984375 4.75 7.75 C4.76675781 8.62527344 4.78351562 9.50054687 4.80078125 10.40234375 C4.4375 12.8125 4.4375 12.8125 3.078125 14.640625 C1.4375 15.8125 1.4375 15.8125 -1.125 15.625 C-3.5625 14.8125 -3.5625 14.8125 -5.5625 12.8125 C-5.86328125 10.53515625 -5.86328125 10.53515625 -5.875 7.875 C-5.89175781 6.99972656 -5.90851563 6.12445313 -5.92578125 5.22265625 C-5.5625 2.8125 -5.5625 2.8125 -4.203125 0.984375 C-2.5625 -0.1875 -2.5625 -0.1875 0 0 Z " fill="#161616" transform="translate(510.5625,244.1875)"/>
<path d="M0 0 C1.65 0 3.3 0 5 0 C5 6.6 5 13.2 5 20 C5.99 20 6.98 20 8 20 C8 21.32 8 22.64 8 24 C5.69 24 3.38 24 1 24 C1 22.35 1 20.7 1 19 C0.34 19 -0.32 19 -1 19 C-0.67 12.73 -0.34 6.46 0 0 Z " fill="#F8F8F8" transform="translate(1565,240)"/>
<path d="M0 0 C1.32 0 2.64 0 4 0 C5.21521251 8.11388044 4.76299944 15.85351368 4 24 C2.68 24 1.36 24 0 24 C0 16.08 0 8.16 0 0 Z " fill="#FDFDFD" transform="translate(1417,240)"/>
<path d="M0 0 C2.77579761 2.77579761 2.86061387 5.30306937 3.625 9.125 C3.88539063 10.40632812 4.14578125 11.68765625 4.4140625 13.0078125 C4.60742188 13.99523437 4.80078125 14.98265625 5 16 C2.03 16 -0.94 16 -4 16 C-2.98408579 10.53135543 -1.92908943 5.23609987 0 0 Z " fill="#212121" transform="translate(213,236)"/>
<path d="M0 0 C2.375 1.6875 2.375 1.6875 4 4 C4.25 6.75 4.25 6.75 4 9 C2.35 9 0.7 9 -1 9 C-1.33 7.68 -1.66 6.36 -2 5 C-3.98 5 -5.96 5 -8 5 C-8.33 5.66 -8.66 6.32 -9 7 C-8.625 4.0625 -8.625 4.0625 -8 1 C-5.15916359 -0.42041821 -3.14522722 -0.31452272 0 0 Z " fill="#E8E8E8" transform="translate(1192,240)"/>
<path d="M0 0 C2.375 1.6875 2.375 1.6875 4 4 C4.25 6.75 4.25 6.75 4 9 C2.35 9 0.7 9 -1 9 C-1.33 7.68 -1.66 6.36 -2 5 C-3.98 5 -5.96 5 -8 5 C-8.33 5.66 -8.66 6.32 -9 7 C-8.625 4.0625 -8.625 4.0625 -8 1 C-5.15916359 -0.42041821 -3.14522722 -0.31452272 0 0 Z " fill="#E8E8E8" transform="translate(680,240)"/>
<path d="M0 0 C2.375 1.6875 2.375 1.6875 4 4 C4.25 6.75 4.25 6.75 4 9 C2.35 9 0.7 9 -1 9 C-1.33 7.68 -1.66 6.36 -2 5 C-3.98 5 -5.96 5 -8 5 C-8.33 5.66 -8.66 6.32 -9 7 C-8.625 4.0625 -8.625 4.0625 -8 1 C-5.15916359 -0.42041821 -3.14522722 -0.31452272 0 0 Z " fill="#E8E8E8" transform="translate(599,240)"/>
<path d="M0 0 C3.47552338 0.34755234 4.83993243 0.67588358 7.125 3.3125 C7.375 6.5 7.375 6.5 7.125 9.3125 C5.805 9.3125 4.485 9.3125 3.125 9.3125 C2.465 7.9925 1.805 6.6725 1.125 5.3125 C-2.48492379 5.96835189 -2.48492379 5.96835189 -5.875 7.3125 C-4.80282305 0.52204598 -4.80282305 0.52204598 0 0 Z " fill="#ECECEC" transform="translate(541.875,239.6875)"/>
<path d="M0 0 C2.01822917 0.06510417 4.03645833 0.13020833 6.0546875 0.1953125 C6.2421875 2.5703125 6.2421875 2.5703125 6.0546875 5.1953125 C2.6194827 7.48544903 1.0693565 7.37374223 -2.9453125 7.1953125 C-3.5703125 4.8203125 -3.5703125 4.8203125 -3.9453125 2.1953125 C-1.9453125 0.1953125 -1.9453125 0.1953125 0 0 Z " fill="#161616" transform="translate(1234.9453125,252.8046875)"/>
<path d="M0 0 C3.0625 0.4375 3.0625 0.4375 4.9375 2.875 C6.0625 5.4375 6.0625 5.4375 6.0625 6.4375 C2.1025 6.4375 -1.8575 6.4375 -5.9375 6.4375 C-4.49551105 0.6695442 -4.49551105 0.6695442 0 0 Z " fill="#1F1F1F" transform="translate(994.9375,243.5625)"/>
<path d="M0 0 C3.625 0.375 3.625 0.375 7 1 C7.33 2.65 7.66 4.3 8 6 C4.37 6 0.74 6 -3 6 C-2 2 -2 2 0 0 Z " fill="#1A1A1A" transform="translate(615,244)"/>
<path d="M0 0 C2.5625 0.3125 2.5625 0.3125 4.375 1.625 C5.5625 3.3125 5.5625 3.3125 5.5625 6.3125 C1.9325 6.3125 -1.6975 6.3125 -5.4375 6.3125 C-3.98716887 0.5111755 -3.98716887 0.5111755 0 0 Z " fill="#161616" transform="translate(725.4375,243.6875)"/>
<path d="M0 0 C1.65 0 3.3 0 5 0 C5.33 1.65 5.66 3.3 6 5 C3.625 5.625 3.625 5.625 1 6 C0.34 5.34 -0.32 4.68 -1 4 C-0.625 1.875 -0.625 1.875 0 0 Z " fill="#E7E7E7" transform="translate(374,231)"/>
<path d="M0 0 C1.65 0 3.3 0 5 0 C5.33 1.65 5.66 3.3 6 5 C3.625 5.625 3.625 5.625 1 6 C0.34 5.34 -0.32 4.68 -1 4 C-0.625 1.875 -0.625 1.875 0 0 Z " fill="#E7E7E7" transform="translate(320,231)"/>
<path d="M0 0 C1.2065625 0.0309375 1.2065625 0.0309375 2.4375 0.0625 C3.0625 1.9375 3.0625 1.9375 3.4375 4.0625 C2.7775 4.7225 2.1175 5.3825 1.4375 6.0625 C-0.6875 5.6875 -0.6875 5.6875 -2.5625 5.0625 C-3.125 3.125 -3.125 3.125 -3.5625 1.0625 C-2.5625 0.0625 -2.5625 0.0625 0 0 Z " fill="#EBEBEB" transform="translate(1508.5625,230.9375)"/>
<path d="M0 0 C1.2065625 0.0309375 1.2065625 0.0309375 2.4375 0.0625 C3.0625 1.9375 3.0625 1.9375 3.4375 4.0625 C2.7775 4.7225 2.1175 5.3825 1.4375 6.0625 C-0.6875 5.6875 -0.6875 5.6875 -2.5625 5.0625 C-3.125 3.125 -3.125 3.125 -3.5625 1.0625 C-2.5625 0.0625 -2.5625 0.0625 0 0 Z " fill="#EBEBEB" transform="translate(1077.5625,230.9375)"/>
<path d="M0 0 C1.65 0.33 3.3 0.66 5 1 C4.67 2.65 4.34 4.3 4 6 C2.35 5.67 0.7 5.34 -1 5 C-0.67 3.35 -0.34 1.7 0 0 Z " fill="#F4F4F4" transform="translate(1291,231)"/>
<path d="M0 0 C1.65 0.33 3.3 0.66 5 1 C4.67 2.65 4.34 4.3 4 6 C2.35 5.67 0.7 5.34 -1 5 C-0.67 3.35 -0.34 1.7 0 0 Z " fill="#F4F4F4" transform="translate(779,231)"/>
<path d="M0 0 C1.65 0.33 3.3 0.66 5 1 C4.67 2.65 4.34 4.3 4 6 C2.35 5.67 0.7 5.34 -1 5 C-0.67 3.35 -0.34 1.7 0 0 Z " fill="#F4F4F4" transform="translate(698,231)"/>
</svg>
